<svg width="1920" height="348" viewBox="0 0 1920 348" fill="none" xmlns="http://www.w3.org/2000/svg">
<g filter="url(#filter0_i_1450_1604)">
<path d="M962.036 25.3665C963.163 27.0606 962.505 28.8958 962.036 29.6016C960.627 33.8367 955.699 33.8368 953.586 33.1309C951.474 32.4251 950.065 31.7192 947.952 31.7192H928.94C924.715 31.7192 907.11 22.5431 903.59 21.1314C900.773 20.0021 892.088 17.8375 888.098 16.8963C883.873 15.4846 882.464 9.13196 880.352 6.30856C878.662 4.04983 878.239 7.24969 878.239 9.13196C877.535 10.0731 875.281 11.5319 871.901 9.83781C863.451 7.01444 865.564 14.7788 869.085 18.308C872.606 21.8373 882.464 23.9548 885.281 23.9548C885.985 25.3665 888.802 27.4841 892.323 28.8958C895.843 30.3075 904.998 37.366 908.519 38.0719C912.039 38.7777 918.377 41.6011 921.898 43.7187C925.419 45.8362 931.052 47.9538 935.981 49.3655C940.911 50.7772 941.615 52.1889 943.727 61.365C945.84 70.541 945.84 88.1873 945.84 89.599C945.84 91.0107 947.248 93.1283 947.952 98.0692C945.84 109.363 947.952 153.831 947.248 160.89C946.122 163.713 943.962 167.713 943.023 169.36C942.554 176.183 941.052 190.395 938.798 192.653C935.981 195.477 938.798 201.829 936.686 207.476C934.573 213.123 933.165 215.946 943.727 216.652C952.177 217.217 952.882 212.652 952.177 210.3C952.177 209.594 955.698 199.712 957.107 195.477C958.515 191.242 959.219 180.654 959.219 178.536C959.219 176.419 960.628 168.654 961.332 165.831C962.036 163.008 965.557 140.42 966.261 137.597C966.965 134.774 970.486 121.362 971.19 122.774C971.754 123.903 975.65 136.42 977.528 142.538C978.936 146.067 978.232 151.008 978.936 154.537C979.64 158.067 981.049 163.008 982.457 172.184C983.865 181.36 987.386 194.065 988.795 196.888C989.921 199.147 990.203 204.418 990.203 206.77V214.535C990.203 219.476 1000.06 216.652 1005.69 216.652C1011.33 216.652 1007.81 209.594 1006.4 206.77C1005.27 204.512 1004.05 199.241 1003.58 196.888L1000.77 194.065V185.595C1000.77 182.771 999.357 176.419 999.357 175.007C999.357 173.595 997.949 167.243 997.949 164.419C997.949 161.596 995.836 160.184 995.836 158.772C995.836 157.361 994.428 151.008 994.428 148.891V124.186C994.428 119.951 992.316 99.4809 992.316 98.0692C992.316 96.6575 993.724 91.7166 994.428 90.3049C995.132 88.8932 995.836 85.3639 995.836 76.8937C995.836 68.4235 998.653 55.0123 1000.77 52.1889C1002.88 49.3655 1019.07 46.5421 1021.89 45.8362C1024.71 45.1304 1043.02 34.5426 1044.42 33.8368C1045.55 33.2721 1050.06 31.2486 1052.17 30.3075C1054.42 29.1781 1055.46 27.9547 1055.69 27.4841C1055.69 26.7782 1056.68 25.3665 1060.62 25.3665C1071.89 25.3665 1074 16.8963 1074 14.0729C1074 11.2495 1071.18 12.6612 1070.48 14.0729C1069.77 15.4847 1063.44 15.4846 1062.73 14.7788C1062.03 14.0729 1063.44 9.83781 1062.03 9.83781C1060.62 9.83781 1058.51 14.0729 1057.1 16.8963C1055.69 19.7197 1054.99 19.7197 1052.17 19.7197C1049.35 19.7197 1038.09 25.3665 1024.71 28.8958C1011.33 32.4251 1004.29 32.4251 1000.06 31.7192C995.836 31.0134 987.386 31.7192 985.274 31.7192C983.161 31.7192 980.345 33.1309 978.936 31.7192C978.936 30.3075 978.232 29.6016 976.824 28.8958C975.415 28.19 977.528 24.6607 978.936 23.9548C980.345 23.249 981.049 19.0139 981.049 16.8963C981.753 10.5437 980.345 5.60267 976.824 2.77927C971.894 -0.749987 966.965 -0.0441362 964.853 1.36757C962.036 1.36757 958.515 6.30853 957.811 12.6612C957.107 19.0139 960.628 23.249 962.036 25.3665Z" fill="url(#paint0_linear_1450_1604)"/>
</g>
<path opacity="0.5" d="M962.036 332.831C963.163 331.809 962.505 330.703 962.036 330.277C960.627 327.723 955.699 327.723 953.586 328.149C951.474 328.575 950.065 329 947.952 329H928.94C924.715 329 907.11 334.534 903.59 335.385C900.773 336.066 892.088 337.371 888.098 337.939C883.873 338.79 882.464 342.621 880.352 344.323C878.662 345.685 878.239 343.756 878.239 342.621C877.535 342.053 875.281 341.173 871.901 342.195C863.451 343.897 865.564 339.215 869.085 337.087C872.606 334.959 882.464 333.682 885.281 333.682C885.985 332.831 888.802 331.554 892.323 330.703C895.843 329.852 904.998 325.595 908.519 325.17C912.039 324.744 918.377 323.041 921.898 321.765C925.419 320.488 931.052 319.211 935.981 318.359C940.911 317.508 941.615 316.657 943.727 311.124C945.84 305.59 945.84 294.95 945.84 294.098C945.84 293.247 947.248 291.97 947.952 288.991C945.84 282.181 947.952 255.366 947.248 251.109C946.122 249.407 943.962 246.995 943.023 246.002C942.554 241.887 941.052 233.318 938.798 231.956C935.981 230.253 938.798 226.423 936.686 223.018C934.573 219.612 933.165 217.91 943.727 217.484C952.177 217.144 952.882 219.896 952.177 221.315C952.177 221.741 955.698 227.699 957.107 230.253C958.515 232.807 959.219 239.192 959.219 240.468C959.219 241.745 960.628 246.427 961.332 248.13C962.036 249.832 965.557 263.453 966.261 265.155C966.965 266.858 970.486 274.945 971.19 274.094C971.754 273.413 975.65 265.865 977.528 262.176C978.936 260.048 978.232 257.068 978.936 254.94C979.64 252.812 981.049 249.832 982.457 244.299C983.865 238.766 987.386 231.105 988.795 229.402C989.921 228.04 990.203 224.862 990.203 223.443V218.761C990.203 215.782 1000.06 217.484 1005.69 217.484C1011.33 217.484 1007.81 221.741 1006.4 223.443C1005.27 224.805 1004.05 227.983 1003.58 229.402L1000.77 231.105V236.212C1000.77 237.915 999.357 241.745 999.357 242.597C999.357 243.448 997.949 247.279 997.949 248.981C997.949 250.684 995.836 251.535 995.836 252.386C995.836 253.237 994.428 257.068 994.428 258.345V273.242C994.428 275.796 992.316 288.139 992.316 288.991C992.316 289.842 993.724 292.821 994.428 293.673C995.132 294.524 995.836 296.652 995.836 301.76C995.836 306.867 998.653 314.954 1000.77 316.657C1002.88 318.359 1019.07 320.062 1021.89 320.488C1024.71 320.913 1043.02 327.298 1044.42 327.723C1045.55 328.064 1050.06 329.284 1052.17 329.852C1054.42 330.533 1055.46 331.27 1055.69 331.554C1055.69 331.98 1056.68 332.831 1060.62 332.831C1071.89 332.831 1074 337.939 1074 339.641C1074 341.344 1071.18 340.492 1070.48 339.641C1069.77 338.79 1063.44 338.79 1062.73 339.215C1062.03 339.641 1063.44 342.195 1062.03 342.195C1060.62 342.195 1058.51 339.641 1057.1 337.939C1055.69 336.236 1054.99 336.236 1052.17 336.236C1049.35 336.236 1038.09 332.831 1024.71 330.703C1011.33 328.575 1004.29 328.575 1000.06 329C995.836 329.426 987.386 329 985.274 329C983.161 329 980.345 328.149 978.936 329C978.936 329.852 978.232 330.277 976.824 330.703C975.415 331.128 977.528 333.257 978.936 333.682C980.345 334.108 981.049 336.662 981.049 337.939C981.753 341.769 980.345 344.749 976.824 346.451C971.894 348.579 966.965 348.154 964.853 347.303C962.036 347.303 958.515 344.323 957.811 340.492C957.107 336.662 960.628 334.108 962.036 332.831Z" fill="url(#paint1_linear_1450_1604)"/>
<defs>
<filter id="filter0_i_1450_1604" x="866" y="0.210938" width="208" height="217.244" filterUnits="userSpaceOnUse" color-interpolation-filters="sRGB">
<feFlood flood-opacity="0" result="BackgroundImageFix"/>
<feBlend mode="normal" in="SourceGraphic" in2="BackgroundImageFix" result="shape"/>
<feColorMatrix in="SourceAlpha" type="matrix" values="0 0 0 0 0 0 0 0 0 0 0 0 0 0 0 0 0 0 127 0" result="hardAlpha"/>
<feOffset dy="3"/>
<feComposite in2="hardAlpha" operator="arithmetic" k2="-1" k3="1"/>
<feColorMatrix type="matrix" values="0 0 0 0 1 0 0 0 0 0.541667 0 0 0 0 0.91423 0 0 0 1 0"/>
<feBlend mode="normal" in2="shape" result="effect1_innerShadow_1450_1604"/>
</filter>
<linearGradient id="paint0_linear_1450_1604" x1="970" y1="0.210937" x2="970" y2="217.455" gradientUnits="userSpaceOnUse">
<stop stop-color="#251344"/>
<stop offset="1" stop-color="#170A2E"/>
</linearGradient>
<linearGradient id="paint1_linear_1450_1604" x1="970" y1="348" x2="970" y2="217" gradientUnits="userSpaceOnUse">
<stop offset="0.359375" stop-color="#0C041A" stop-opacity="0"/>
<stop offset="1" stop-color="#0C041A"/>
</linearGradient>
</defs>
</svg>
