<svg width="268" height="32" viewBox="0 0 268 32" fill="none" xmlns="http://www.w3.org/2000/svg">
<path d="M70.0113 21.3333V24.7683H53.9209V7.41241H57.8983V21.1525H70.0113V21.3333Z" fill="white"/>
<path d="M89.8984 20.9717H79.5933L77.7854 24.5876H73.6272L82.6667 7.41241H86.8249L95.8645 24.5876H91.5255L89.8984 20.9717ZM88.2713 17.7175L84.6554 10.6667L81.0396 17.7175H88.2713Z" fill="white"/>
<path d="M118.283 7.41241V16.452C118.283 21.6949 114.847 25.1299 108.701 25.1299C102.373 25.1299 99.1187 21.6949 99.1187 16.452V7.41241H103.096V16.2712C103.096 19.7062 105.085 21.6949 108.881 21.6949C112.678 21.6949 114.667 19.7062 114.667 16.2712V7.41241H118.283Z" fill="white"/>
<path d="M144.136 7.41241V24.5876H140.701L128.407 12.2938V24.7683H124.61V7.41241H128.768L140.339 19.1638V7.41241H144.136Z" fill="white"/>
<path d="M166.192 18.9831L169.808 20.791C168.181 23.1412 164.927 25.1299 160.407 25.1299C153.898 25.1299 149.74 21.6949 149.74 15.9096C149.74 10.1243 153.898 6.68927 160.588 6.68927C164.927 6.68927 168.181 8.67797 169.808 11.0283L166.192 12.8362C164.927 10.8475 163.119 10.1243 160.588 10.1243C156.429 10.1243 153.718 12.113 153.718 15.9096C153.718 19.7062 156.429 21.6949 160.588 21.6949C162.938 21.8757 164.927 20.9718 166.192 18.9831Z" fill="white"/>
<path d="M194.215 7.41241V24.5876H190.237V17.7175H178.486V24.7683H174.509V7.41241H178.486V14.1017H190.237V7.41241H194.215Z" fill="white"/>
<path d="M219.887 13.1977C219.887 16.9943 216.994 18.983 212.475 18.983H204.701V24.5876H200.723V7.41241H212.475C216.994 7.41241 219.887 9.58191 219.887 13.1977ZM215.91 13.1977C215.91 11.209 214.463 10.6667 212.294 10.6667H204.701V15.7288H212.294C214.463 15.9096 215.91 15.1864 215.91 13.1977Z" fill="white"/>
<path d="M237.604 20.9717H227.299L225.491 24.5876H221.333L230.373 7.41241H234.712L243.751 24.5876H239.412L237.604 20.9717ZM235.977 17.7175L232.362 10.6667L228.746 17.7175H235.977Z" fill="white"/>
<path d="M267.977 16.0904C267.977 21.5141 263.819 24.7683 257.311 24.7683H248.09V7.41241H257.311C263.819 7.41241 267.977 10.6667 267.977 16.0904ZM264 16.0904C264 12.4746 261.107 10.8474 257.13 10.8474H252.249V21.3333H257.13C261.107 21.3333 264 19.5254 264 16.0904Z" fill="white"/>
<path d="M35.661 14.4633L28.0678 1.44633C27.7062 0.542373 26.6215 0 25.5367 0H10.5311C9.44633 0 8.54237 0.542373 8 1.44633L0.40678 14.4633C-0.135593 15.3672 -0.135593 16.6328 0.40678 17.5367L4.0226 23.8644C4.56497 24.5876 5.64972 24.7684 6.19209 24.0452L25.7175 2.53107L10.5311 32H25.5367C26.6215 32 27.7062 31.4576 28.2486 30.5537L35.8418 17.5367C36.2034 16.6328 36.2034 15.548 35.661 14.4633Z" fill="white"/>
</svg>
