<svg width="1921" height="1354" viewBox="0 0 1921 1354" fill="none" xmlns="http://www.w3.org/2000/svg">
<g clip-path="url(#clip0_1595_2021)">
<path d="M1822.87 786.848C1856.03 781.603 1887.33 787.347 1920 776.858V1426.74H7.60607e-05C-4.62725e-05 1301.78 6.28871e-06 1038.83 4.62152e-05 839.096L7.60607e-05 643C28.4297 662.979 80.4261 678.462 108.108 701.188C119.579 702.437 131.051 701.938 146.014 706.433C146.513 703.436 147.011 700.689 147.51 697.692C176.937 704.935 202.873 719.919 231.552 718.171C261.728 716.422 291.903 707.931 326.318 706.683C357.491 705.434 394.15 706.433 421.083 721.917C450.511 738.649 488.417 802.581 524.577 762.124C566.474 798.835 632.809 805.328 684.93 815.817C686.427 816.067 687.674 816.317 688.921 816.566C695.404 813.57 700.642 815.568 705.38 818.814C719.844 820.063 726.079 819.563 746.777 831.551L746.778 831.551C748.773 832.8 750.768 834.048 752.763 835.546C760.743 837.045 768.224 838.044 774.708 837.295C795.906 835.047 826.331 843.038 843.039 866.014C857.504 848.033 860.496 868.761 873.713 870.26C887.679 872.008 889.424 853.278 905.884 871.009C924.588 855.775 960.499 852.778 977.706 868.262C988.43 856.524 1004.14 850.281 1019.6 848.782C1026.59 838.044 1030.08 824.558 1041.05 818.065C1064.99 803.83 1071.97 820.312 1094.67 815.817C1116.11 811.572 1129.08 793.591 1154.52 790.844C1182.7 787.847 1208.63 803.58 1239.31 806.827C1261.01 809.074 1283.7 803.83 1305.4 807.076C1326.84 810.323 1341.56 818.564 1364.75 821.811C1408.64 827.805 1449.79 801.582 1489.19 797.836C1523.11 794.59 1513.88 807.326 1547.3 795.589C1571.99 786.848 1575.23 781.354 1598.42 778.107C1643.56 771.614 1670.99 783.851 1712.14 790.594C1739.82 795.339 1790.94 791.843 1822.87 786.848Z" fill="#0C041A"/>
</g>
<defs>
<clipPath id="clip0_1595_2021">
<rect width="1921" height="1354" fill="white"/>
</clipPath>
</defs>
</svg>
