<svg width="672" height="165" viewBox="0 0 672 165" fill="none" xmlns="http://www.w3.org/2000/svg">
<g opacity="0.6">
<mask id="path-1-outside-1_1428_1088" maskUnits="userSpaceOnUse" x="0.0629883" y="0.0599365" width="672" height="165" fill="black">
<rect fill="white" x="0.0629883" y="0.0599365" width="672" height="165"/>
<path d="M2.06299 158V155.7L6.20299 154.32C9.26966 153.247 11.3397 151.79 12.413 149.95C13.4863 148.11 14.023 145.657 14.023 142.59C14.1763 133.39 14.253 124.113 14.253 114.76C14.253 105.407 14.253 96.0533 14.253 86.6999V77.4999C14.253 68.2999 14.253 59.0999 14.253 49.8999C14.253 40.5466 14.1763 31.2699 14.023 22.0699C14.023 19.0033 13.563 16.5499 12.643 14.7099C11.8763 12.8699 10.0363 11.4133 7.12299 10.3399L2.06299 8.49994V6.19994H113.383L114.993 44.3799H112.693L99.583 20.2299C98.0497 17.3166 96.2863 15.0166 94.293 13.3299C92.2997 11.6433 89.5397 10.7999 86.013 10.7999H48.983C48.8297 21.6866 48.753 32.8033 48.753 44.1499C48.753 55.4966 48.753 66.7666 48.753 77.9599H72.673C76.1997 77.9599 78.8063 77.1933 80.493 75.6599C82.1797 74.1266 83.7897 71.9033 85.323 68.9899L90.153 60.2499H92.453V100.5H90.153L85.093 91.7599C83.5597 88.9999 81.9497 86.7766 80.263 85.0899C78.7297 83.4033 76.1997 82.5599 72.673 82.5599H48.753C48.753 93.2933 48.753 103.567 48.753 113.38C48.753 123.04 48.8297 132.547 48.983 141.9C48.983 147.88 51.8963 151.79 57.723 153.63L64.623 155.7V158H2.06299ZM195.567 162.14C186.213 162.14 177.167 160.453 168.427 157.08C159.84 153.707 152.097 148.723 145.197 142.13C138.45 135.383 133.083 127.027 129.097 117.06C125.11 107.093 123.117 95.4399 123.117 82.0999C123.117 68.9133 125.11 57.3366 129.097 47.3699C133.083 37.4033 138.527 29.1233 145.427 22.5299C152.327 15.7833 160.07 10.7233 168.657 7.34994C177.397 3.82327 186.367 2.05994 195.567 2.05994C204.92 2.05994 213.89 3.7466 222.477 7.11994C231.217 10.3399 238.96 15.3233 245.707 22.0699C252.607 28.6633 258.05 37.0199 262.037 47.1399C266.023 57.1066 268.017 68.7599 268.017 82.0999C268.017 95.1333 266.023 106.71 262.037 116.83C258.05 126.797 252.607 135.153 245.707 141.9C238.96 148.493 231.217 153.553 222.477 157.08C213.89 160.453 204.92 162.14 195.567 162.14ZM195.567 157.31C204 157.31 210.823 155.087 216.037 150.64C221.25 146.04 225.007 138.297 227.307 127.41C229.76 116.37 230.987 101.267 230.987 82.0999C230.987 62.7799 229.76 47.6766 227.307 36.7899C225.007 25.7499 221.25 18.0066 216.037 13.5599C210.823 8.95993 204 6.65993 195.567 6.65993C187.287 6.65993 180.54 8.95993 175.327 13.5599C170.113 18.0066 166.28 25.7499 163.827 36.7899C161.527 47.6766 160.377 62.7799 160.377 82.0999C160.377 101.267 161.527 116.37 163.827 127.41C166.28 138.297 170.113 146.04 175.327 150.64C180.54 155.087 187.287 157.31 195.567 157.31ZM360.372 162.14C345.499 162.14 332.006 159.15 319.892 153.17C307.932 147.037 298.426 137.99 291.372 126.03C284.319 114.07 280.792 99.4266 280.792 82.0999C280.792 68.9133 282.939 57.3366 287.232 47.3699C291.526 37.4033 297.352 29.0466 304.712 22.2999C312.226 15.5533 320.812 10.4933 330.472 7.11994C340.286 3.7466 350.636 2.05994 361.522 2.05994C370.262 2.05994 378.312 3.0566 385.672 5.04994C393.032 7.04327 399.932 9.80328 406.372 13.3299L407.292 41.6199H404.992L393.492 23.2199C391.959 20.3066 390.272 17.6999 388.432 15.3999C386.592 12.9466 384.292 11.1066 381.532 9.87993C379.232 8.8066 376.932 8.03994 374.632 7.57993C372.486 6.9666 369.726 6.65993 366.352 6.65993C357.459 6.65993 349.332 9.0366 341.972 13.7899C334.766 18.5433 328.939 26.4399 324.492 37.4799C320.199 48.3666 318.052 63.3166 318.052 82.3299C318.052 101.19 320.122 116.14 324.262 127.18C328.402 138.067 333.999 145.887 341.052 150.64C348.259 155.24 356.309 157.54 365.202 157.54C370.109 157.54 374.019 157.233 376.932 156.62C379.846 155.853 382.759 154.78 385.672 153.4C388.586 152.173 390.809 150.41 392.342 148.11C393.876 145.657 395.256 143.05 396.482 140.29L406.602 117.75H408.902L408.212 150.64C401.772 154.013 394.566 156.773 386.592 158.92C378.619 161.067 369.879 162.14 360.372 162.14ZM489.153 162.14C477.499 162.14 467.149 160.07 458.103 155.93C449.209 151.79 442.233 145.273 437.173 136.38C432.266 127.333 429.813 115.45 429.813 100.73V21.3799C429.813 15.5533 426.823 11.7199 420.843 9.87993L415.783 8.49994V6.19994H479.493V8.49994L472.823 10.3399C467.149 11.7199 464.313 15.5533 464.313 21.8399V106.71C464.313 120.97 467.303 131.55 473.283 138.45C479.263 145.197 487.849 148.57 499.043 148.57C510.696 148.57 519.896 144.967 526.643 137.76C533.543 130.553 536.993 120.357 536.993 107.17V22.7599C536.993 19.6933 536.456 17.0099 535.383 14.7099C534.463 12.2566 532.469 10.6466 529.403 9.87993L523.653 8.49994V6.19994H555.853V8.49994L549.643 10.1099C546.729 10.7233 544.813 12.1799 543.893 14.4799C542.973 16.7799 542.513 19.4633 542.513 22.5299V106.71C542.513 117.903 540.289 127.717 535.843 136.15C531.396 144.43 525.186 150.87 517.213 155.47C509.239 159.917 499.886 162.14 489.153 162.14ZM610.566 162.14C602.132 162.14 593.546 161.067 584.806 158.92C576.066 156.927 568.782 154.243 562.956 150.87L564.106 119.59H566.406L573.536 134.54C575.682 138.833 577.982 142.667 580.436 146.04C582.889 149.26 586.262 151.79 590.556 153.63C593.622 155.163 596.536 156.237 599.296 156.85C602.209 157.31 605.429 157.54 608.956 157.54C618.309 157.54 625.669 155.01 631.036 149.95C636.556 144.89 639.316 138.373 639.316 130.4C639.316 122.887 637.476 117.06 633.796 112.92C630.116 108.627 624.212 104.487 616.086 100.5L606.656 96.3599C593.469 90.5333 583.119 83.8633 575.606 76.3499C568.246 68.6833 564.566 58.5633 564.566 45.9899C564.566 36.9433 566.866 29.1233 571.466 22.5299C576.219 15.9366 582.736 10.8766 591.016 7.34994C599.449 3.82327 609.262 2.05994 620.456 2.05994C628.582 2.05994 636.249 3.13327 643.456 5.27994C650.816 7.4266 657.179 10.3399 662.546 14.0199L661.166 41.6199H658.866L649.436 24.3699C646.829 19.0033 644.222 15.2466 641.616 13.0999C639.009 10.7999 636.019 9.18994 632.646 8.26994C630.652 7.6566 628.812 7.27327 627.126 7.11994C625.439 6.81327 623.292 6.65993 620.686 6.65993C612.866 6.65993 606.272 8.95993 600.906 13.5599C595.539 18.0066 592.856 24.0633 592.856 31.7299C592.856 39.5499 594.926 45.8366 599.066 50.5899C603.206 55.1899 609.262 59.3299 617.236 63.0099L627.816 67.6099C642.536 74.0499 653.116 80.9499 659.556 88.3099C665.996 95.5166 669.216 104.87 669.216 116.37C669.216 129.863 664.079 140.903 653.806 149.49C643.686 157.923 629.272 162.14 610.566 162.14Z"/>
</mask>
<path d="M2.06299 158V155.7L6.20299 154.32C9.26966 153.247 11.3397 151.79 12.413 149.95C13.4863 148.11 14.023 145.657 14.023 142.59C14.1763 133.39 14.253 124.113 14.253 114.76C14.253 105.407 14.253 96.0533 14.253 86.6999V77.4999C14.253 68.2999 14.253 59.0999 14.253 49.8999C14.253 40.5466 14.1763 31.2699 14.023 22.0699C14.023 19.0033 13.563 16.5499 12.643 14.7099C11.8763 12.8699 10.0363 11.4133 7.12299 10.3399L2.06299 8.49994V6.19994H113.383L114.993 44.3799H112.693L99.583 20.2299C98.0497 17.3166 96.2863 15.0166 94.293 13.3299C92.2997 11.6433 89.5397 10.7999 86.013 10.7999H48.983C48.8297 21.6866 48.753 32.8033 48.753 44.1499C48.753 55.4966 48.753 66.7666 48.753 77.9599H72.673C76.1997 77.9599 78.8063 77.1933 80.493 75.6599C82.1797 74.1266 83.7897 71.9033 85.323 68.9899L90.153 60.2499H92.453V100.5H90.153L85.093 91.7599C83.5597 88.9999 81.9497 86.7766 80.263 85.0899C78.7297 83.4033 76.1997 82.5599 72.673 82.5599H48.753C48.753 93.2933 48.753 103.567 48.753 113.38C48.753 123.04 48.8297 132.547 48.983 141.9C48.983 147.88 51.8963 151.79 57.723 153.63L64.623 155.7V158H2.06299ZM195.567 162.14C186.213 162.14 177.167 160.453 168.427 157.08C159.84 153.707 152.097 148.723 145.197 142.13C138.45 135.383 133.083 127.027 129.097 117.06C125.11 107.093 123.117 95.4399 123.117 82.0999C123.117 68.9133 125.11 57.3366 129.097 47.3699C133.083 37.4033 138.527 29.1233 145.427 22.5299C152.327 15.7833 160.07 10.7233 168.657 7.34994C177.397 3.82327 186.367 2.05994 195.567 2.05994C204.92 2.05994 213.89 3.7466 222.477 7.11994C231.217 10.3399 238.96 15.3233 245.707 22.0699C252.607 28.6633 258.05 37.0199 262.037 47.1399C266.023 57.1066 268.017 68.7599 268.017 82.0999C268.017 95.1333 266.023 106.71 262.037 116.83C258.05 126.797 252.607 135.153 245.707 141.9C238.96 148.493 231.217 153.553 222.477 157.08C213.89 160.453 204.92 162.14 195.567 162.14ZM195.567 157.31C204 157.31 210.823 155.087 216.037 150.64C221.25 146.04 225.007 138.297 227.307 127.41C229.76 116.37 230.987 101.267 230.987 82.0999C230.987 62.7799 229.76 47.6766 227.307 36.7899C225.007 25.7499 221.25 18.0066 216.037 13.5599C210.823 8.95993 204 6.65993 195.567 6.65993C187.287 6.65993 180.54 8.95993 175.327 13.5599C170.113 18.0066 166.28 25.7499 163.827 36.7899C161.527 47.6766 160.377 62.7799 160.377 82.0999C160.377 101.267 161.527 116.37 163.827 127.41C166.28 138.297 170.113 146.04 175.327 150.64C180.54 155.087 187.287 157.31 195.567 157.31ZM360.372 162.14C345.499 162.14 332.006 159.15 319.892 153.17C307.932 147.037 298.426 137.99 291.372 126.03C284.319 114.07 280.792 99.4266 280.792 82.0999C280.792 68.9133 282.939 57.3366 287.232 47.3699C291.526 37.4033 297.352 29.0466 304.712 22.2999C312.226 15.5533 320.812 10.4933 330.472 7.11994C340.286 3.7466 350.636 2.05994 361.522 2.05994C370.262 2.05994 378.312 3.0566 385.672 5.04994C393.032 7.04327 399.932 9.80328 406.372 13.3299L407.292 41.6199H404.992L393.492 23.2199C391.959 20.3066 390.272 17.6999 388.432 15.3999C386.592 12.9466 384.292 11.1066 381.532 9.87993C379.232 8.8066 376.932 8.03994 374.632 7.57993C372.486 6.9666 369.726 6.65993 366.352 6.65993C357.459 6.65993 349.332 9.0366 341.972 13.7899C334.766 18.5433 328.939 26.4399 324.492 37.4799C320.199 48.3666 318.052 63.3166 318.052 82.3299C318.052 101.19 320.122 116.14 324.262 127.18C328.402 138.067 333.999 145.887 341.052 150.64C348.259 155.24 356.309 157.54 365.202 157.54C370.109 157.54 374.019 157.233 376.932 156.62C379.846 155.853 382.759 154.78 385.672 153.4C388.586 152.173 390.809 150.41 392.342 148.11C393.876 145.657 395.256 143.05 396.482 140.29L406.602 117.75H408.902L408.212 150.64C401.772 154.013 394.566 156.773 386.592 158.92C378.619 161.067 369.879 162.14 360.372 162.14ZM489.153 162.14C477.499 162.14 467.149 160.07 458.103 155.93C449.209 151.79 442.233 145.273 437.173 136.38C432.266 127.333 429.813 115.45 429.813 100.73V21.3799C429.813 15.5533 426.823 11.7199 420.843 9.87993L415.783 8.49994V6.19994H479.493V8.49994L472.823 10.3399C467.149 11.7199 464.313 15.5533 464.313 21.8399V106.71C464.313 120.97 467.303 131.55 473.283 138.45C479.263 145.197 487.849 148.57 499.043 148.57C510.696 148.57 519.896 144.967 526.643 137.76C533.543 130.553 536.993 120.357 536.993 107.17V22.7599C536.993 19.6933 536.456 17.0099 535.383 14.7099C534.463 12.2566 532.469 10.6466 529.403 9.87993L523.653 8.49994V6.19994H555.853V8.49994L549.643 10.1099C546.729 10.7233 544.813 12.1799 543.893 14.4799C542.973 16.7799 542.513 19.4633 542.513 22.5299V106.71C542.513 117.903 540.289 127.717 535.843 136.15C531.396 144.43 525.186 150.87 517.213 155.47C509.239 159.917 499.886 162.14 489.153 162.14ZM610.566 162.14C602.132 162.14 593.546 161.067 584.806 158.92C576.066 156.927 568.782 154.243 562.956 150.87L564.106 119.59H566.406L573.536 134.54C575.682 138.833 577.982 142.667 580.436 146.04C582.889 149.26 586.262 151.79 590.556 153.63C593.622 155.163 596.536 156.237 599.296 156.85C602.209 157.31 605.429 157.54 608.956 157.54C618.309 157.54 625.669 155.01 631.036 149.95C636.556 144.89 639.316 138.373 639.316 130.4C639.316 122.887 637.476 117.06 633.796 112.92C630.116 108.627 624.212 104.487 616.086 100.5L606.656 96.3599C593.469 90.5333 583.119 83.8633 575.606 76.3499C568.246 68.6833 564.566 58.5633 564.566 45.9899C564.566 36.9433 566.866 29.1233 571.466 22.5299C576.219 15.9366 582.736 10.8766 591.016 7.34994C599.449 3.82327 609.262 2.05994 620.456 2.05994C628.582 2.05994 636.249 3.13327 643.456 5.27994C650.816 7.4266 657.179 10.3399 662.546 14.0199L661.166 41.6199H658.866L649.436 24.3699C646.829 19.0033 644.222 15.2466 641.616 13.0999C639.009 10.7999 636.019 9.18994 632.646 8.26994C630.652 7.6566 628.812 7.27327 627.126 7.11994C625.439 6.81327 623.292 6.65993 620.686 6.65993C612.866 6.65993 606.272 8.95993 600.906 13.5599C595.539 18.0066 592.856 24.0633 592.856 31.7299C592.856 39.5499 594.926 45.8366 599.066 50.5899C603.206 55.1899 609.262 59.3299 617.236 63.0099L627.816 67.6099C642.536 74.0499 653.116 80.9499 659.556 88.3099C665.996 95.5166 669.216 104.87 669.216 116.37C669.216 129.863 664.079 140.903 653.806 149.49C643.686 157.923 629.272 162.14 610.566 162.14Z" stroke="url(#paint0_linear_1428_1088)" stroke-width="4" mask="url(#path-1-outside-1_1428_1088)"/>
</g>
<defs>
<linearGradient id="paint0_linear_1428_1088" x1="336.5" y1="-49" x2="336.5" y2="204" gradientUnits="userSpaceOnUse">
<stop stop-color="#C9037D"/>
<stop offset="0.28125" stop-color="#6814EC"/>
<stop offset="0.755208" stop-color="#0C041A"/>
</linearGradient>
</defs>
</svg>
