<svg width="291" height="106" viewBox="0 0 291 106" fill="none" xmlns="http://www.w3.org/2000/svg">
<g opacity="0.6">
<mask id="path-1-outside-1_1941_4776" maskUnits="userSpaceOnUse" x="-0.847168" y="-0.255859" width="292" height="106" fill="black">
<rect fill="white" x="-0.847168" y="-0.255859" width="292" height="106"/>
<path d="M8.30639 41.0001V40.4401L9.59439 39.9361C10.2291 39.6748 10.6584 39.3388 10.8824 38.9281C11.1437 38.4801 11.2744 37.8828 11.2744 37.1361V7.90414C11.2744 7.15748 11.1624 6.57881 10.9384 6.16814C10.7517 5.72014 10.3037 5.36548 9.59439 5.10414L8.30639 4.60014V4.04014H35.1304L35.4664 12.6641H34.9064L32.4984 7.40014C32.1624 6.72814 31.8077 6.18681 31.4344 5.77614C31.0611 5.36547 30.5011 5.16014 29.7544 5.16014H19.6744V21.3441H25.6664C26.4131 21.3441 26.9731 21.1575 27.3464 20.7841C27.7571 20.3735 28.1117 19.8321 28.4104 19.1601L29.5304 16.9201H30.0904V27.0001H29.5304L28.4104 24.6481C28.0744 23.9761 27.7197 23.4535 27.3464 23.0801C26.9731 22.6695 26.4131 22.4641 25.6664 22.4641H19.6744V39.8801H30.9864C31.7331 39.8801 32.3117 39.6935 32.7224 39.3201C33.1331 38.9095 33.4691 38.3495 33.7304 37.6401L36.0264 32.3761H36.5864L36.2504 41.0001H8.30639ZM39.2569 41.0001V40.4401L40.0409 40.2161C41.3476 39.8428 42.0009 38.9281 42.0009 37.4721V19.9441C42.0009 19.1228 41.8702 18.5255 41.6089 18.1521C41.3476 17.7415 40.8436 17.4615 40.0969 17.3121L39.2569 17.0881V16.5281L48.8329 13.2801L49.3929 13.8401L49.8409 17.2001C51.1476 16.0428 52.6222 15.0908 54.2649 14.3441C55.9076 13.5975 57.5316 13.2241 59.1369 13.2241C61.6009 13.2241 63.4862 13.8961 64.7929 15.2401C66.1369 16.5841 66.8089 18.6375 66.8089 21.4001V37.5281C66.8089 38.9841 67.5182 39.8988 68.9369 40.2721L69.4409 40.4401V41.0001H56.2249V40.4401L56.9529 40.2161C58.2596 39.8055 58.9129 38.8908 58.9129 37.4721V19.6081C58.9129 17.2188 57.7182 16.0241 55.3289 16.0241C53.6862 16.0241 51.8942 16.8455 49.9529 18.4881V37.5281C49.9529 38.9841 50.6062 39.8988 51.9129 40.2721L52.4169 40.4401V41.0001H39.2569ZM83.5039 41.8401C81.3012 41.8401 79.3226 41.3548 77.5679 40.3841C75.8132 39.3761 74.4132 37.8455 73.3679 35.7921C72.3599 33.7015 71.8559 31.0321 71.8559 27.7841C71.8559 24.4988 72.4346 21.7921 73.5919 19.6641C74.7492 17.4988 76.2799 15.8935 78.1839 14.8481C80.0879 13.7655 82.1599 13.2241 84.3999 13.2241C85.7066 13.2241 86.9572 13.3548 88.1519 13.6161C89.3466 13.8775 90.4106 14.2695 91.3439 14.7921V7.51214C91.3439 6.72814 91.2132 6.14948 90.9519 5.77614C90.7279 5.40281 90.2239 5.14147 89.4399 4.99214L88.3759 4.76814V4.20814L98.5679 1.74414L99.1839 2.24814L98.9599 10.0881V37.4721C98.9599 38.2188 99.0906 38.8348 99.3519 39.3201C99.6132 39.7681 100.099 40.0855 100.808 40.2721L101.312 40.4401V41.0001L91.7359 41.6161L91.2319 39.6001C90.2239 40.2721 89.0666 40.8135 87.7599 41.2241C86.4906 41.6348 85.0719 41.8401 83.5039 41.8401ZM86.7519 39.7681C88.3199 39.7681 89.7572 39.3015 91.0639 38.3681V16.1361C89.6826 15.2401 88.2639 14.7921 86.8079 14.7921C85.0159 14.7921 83.4852 15.8375 82.2159 17.9281C80.9466 19.9815 80.3119 23.2295 80.3119 27.6721C80.3119 32.1148 80.9092 35.2508 82.1039 37.0801C83.2986 38.8721 84.8479 39.7681 86.7519 39.7681ZM104.58 27.5601V26.0481H118.692V27.5601H104.58ZM132.694 41.8401C130.304 41.8401 128.438 41.2428 127.094 40.0481C125.787 38.8535 125.134 36.9495 125.134 34.3361V15.1841H121.27V14.6241L122.614 14.4001C123.771 14.1388 124.76 13.7655 125.582 13.2801C126.44 12.7948 127.28 12.1415 128.102 11.3201L132.694 6.22414H133.254L133.086 14.0641H139.358V15.1841H133.03V35.3441C133.03 36.6508 133.31 37.6401 133.87 38.3121C134.467 38.9841 135.214 39.3201 136.11 39.3201C136.894 39.3201 137.584 39.1335 138.182 38.7601C138.779 38.3495 139.376 37.8081 139.974 37.1361L140.534 37.6961C139.787 38.9655 138.76 39.9735 137.454 40.7201C136.147 41.4668 134.56 41.8401 132.694 41.8401ZM156.292 41.8401C153.455 41.8401 150.991 41.2615 148.9 40.1041C146.809 38.9095 145.185 37.2295 144.028 35.0641C142.908 32.8988 142.348 30.3601 142.348 27.4481C142.348 24.5361 142.945 22.0161 144.14 19.8881C145.372 17.7601 147.033 16.1175 149.124 14.9601C151.252 13.8028 153.641 13.2241 156.292 13.2241C158.943 13.2241 161.313 13.8028 163.404 14.9601C165.495 16.0801 167.137 17.7041 168.332 19.8321C169.564 21.9601 170.18 24.4988 170.18 27.4481C170.18 30.3975 169.601 32.9548 168.444 35.1201C167.324 37.2481 165.719 38.9095 163.628 40.1041C161.575 41.2615 159.129 41.8401 156.292 41.8401ZM156.292 40.7201C157.599 40.7201 158.644 40.3468 159.428 39.6001C160.212 38.8535 160.772 37.5281 161.108 35.6241C161.481 33.7201 161.668 31.0321 161.668 27.5601C161.668 24.0508 161.481 21.3441 161.108 19.4401C160.772 17.5361 160.212 16.2108 159.428 15.4641C158.644 14.7175 157.599 14.3441 156.292 14.3441C154.985 14.3441 153.921 14.7175 153.1 15.4641C152.316 16.2108 151.737 17.5361 151.364 19.4401C151.028 21.3441 150.86 24.0508 150.86 27.5601C150.86 31.0321 151.028 33.7201 151.364 35.6241C151.737 37.5281 152.316 38.8535 153.1 39.6001C153.921 40.3468 154.985 40.7201 156.292 40.7201ZM173.978 27.5601V26.0481H188.09V27.5601H173.978ZM191.564 41.0001V40.4401L192.852 39.9361C193.487 39.6748 193.916 39.3388 194.14 38.9281C194.402 38.4801 194.532 37.8828 194.532 37.1361V7.90414C194.532 7.15748 194.42 6.57881 194.196 6.16814C194.01 5.72014 193.562 5.36548 192.852 5.10414L191.564 4.60014V4.04014H218.388L218.724 12.6641H218.164L215.756 7.40014C215.42 6.72814 215.066 6.18681 214.692 5.77614C214.319 5.36547 213.759 5.16014 213.012 5.16014H202.932V21.3441H208.924C209.671 21.3441 210.231 21.1575 210.604 20.7841C211.015 20.3735 211.37 19.8321 211.668 19.1601L212.788 16.9201H213.348V27.0001H212.788L211.668 24.6481C211.332 23.9761 210.978 23.4535 210.604 23.0801C210.231 22.6695 209.671 22.4641 208.924 22.4641H202.932V39.8801H214.244C214.991 39.8801 215.57 39.6935 215.98 39.3201C216.391 38.9095 216.727 38.3495 216.988 37.6401L219.284 32.3761H219.844L219.508 41.0001H191.564ZM222.515 41.0001V40.4401L223.299 40.2161C224.605 39.8428 225.259 38.9281 225.259 37.4721V19.9441C225.259 19.1228 225.128 18.5255 224.867 18.1521C224.605 17.7415 224.101 17.4615 223.355 17.3121L222.515 17.0881V16.5281L232.091 13.2801L232.651 13.8401L233.099 17.2001C234.405 16.0428 235.88 15.0908 237.523 14.3441C239.165 13.5975 240.789 13.2241 242.395 13.2241C244.859 13.2241 246.744 13.8961 248.051 15.2401C249.395 16.5841 250.067 18.6375 250.067 21.4001V37.5281C250.067 38.9841 250.776 39.8988 252.195 40.2721L252.699 40.4401V41.0001H239.483V40.4401L240.211 40.2161C241.517 39.8055 242.171 38.8908 242.171 37.4721V19.6081C242.171 17.2188 240.976 16.0241 238.587 16.0241C236.944 16.0241 235.152 16.8455 233.211 18.4881V37.5281C233.211 38.9841 233.864 39.8988 235.171 40.2721L235.675 40.4401V41.0001H222.515ZM266.762 41.8401C264.559 41.8401 262.58 41.3548 260.826 40.3841C259.071 39.3761 257.671 37.8455 256.626 35.7921C255.618 33.7015 255.114 31.0321 255.114 27.7841C255.114 24.4988 255.692 21.7921 256.85 19.6641C258.007 17.4988 259.538 15.8935 261.442 14.8481C263.346 13.7655 265.418 13.2241 267.658 13.2241C268.964 13.2241 270.215 13.3548 271.41 13.6161C272.604 13.8775 273.668 14.2695 274.602 14.7921V7.51214C274.602 6.72814 274.471 6.14948 274.21 5.77614C273.986 5.40281 273.482 5.14147 272.698 4.99214L271.634 4.76814V4.20814L281.826 1.74414L282.442 2.24814L282.218 10.0881V37.4721C282.218 38.2188 282.348 38.8348 282.61 39.3201C282.871 39.7681 283.356 40.0855 284.066 40.2721L284.57 40.4401V41.0001L274.994 41.6161L274.49 39.6001C273.482 40.2721 272.324 40.8135 271.018 41.2241C269.748 41.6348 268.33 41.8401 266.762 41.8401ZM270.01 39.7681C271.578 39.7681 273.015 39.3015 274.322 38.3681V16.1361C272.94 15.2401 271.522 14.7921 270.066 14.7921C268.274 14.7921 266.743 15.8375 265.474 17.9281C264.204 19.9815 263.57 23.2295 263.57 27.6721C263.57 32.1148 264.167 35.2508 265.362 37.0801C266.556 38.8721 268.106 39.7681 270.01 39.7681ZM12.7448 104.008C10.6915 104.008 8.60083 103.747 6.47283 103.224C4.34483 102.739 2.5715 102.085 1.15283 101.264L1.43283 93.6481H1.99283L3.72883 97.2881C4.2515 98.3335 4.8115 99.2668 5.40883 100.088C6.00617 100.872 6.8275 101.488 7.87283 101.936C8.6195 102.309 9.32883 102.571 10.0008 102.72C10.7102 102.832 11.4942 102.888 12.3528 102.888C14.6302 102.888 16.4222 102.272 17.7288 101.04C19.0728 99.8081 19.7448 98.2215 19.7448 96.2801C19.7448 94.4508 19.2968 93.0321 18.4008 92.0241C17.5048 90.9788 16.0675 89.9708 14.0888 89.0001L11.7928 87.9921C8.58217 86.5735 6.06217 84.9495 4.23283 83.1201C2.44083 81.2535 1.54483 78.7895 1.54483 75.7281C1.54483 73.5255 2.10483 71.6215 3.22483 70.0161C4.38217 68.4108 5.96883 67.1788 7.98483 66.3201C10.0382 65.4615 12.4275 65.0321 15.1528 65.0321C17.1315 65.0321 18.9982 65.2935 20.7528 65.8161C22.5448 66.3388 24.0942 67.0481 25.4008 67.9441L25.0648 74.6641H24.5048L22.2088 70.4641C21.5742 69.1575 20.9395 68.2428 20.3048 67.7201C19.6702 67.1601 18.9422 66.7681 18.1208 66.5441C17.6355 66.3948 17.1875 66.3015 16.7768 66.2641C16.3662 66.1895 15.8435 66.1521 15.2088 66.1521C13.3048 66.1521 11.6995 66.7121 10.3928 67.8321C9.08617 68.9148 8.43283 70.3895 8.43283 72.2561C8.43283 74.1601 8.93683 75.6908 9.94483 76.8481C10.9528 77.9681 12.4275 78.9761 14.3688 79.8721L16.9448 80.9921C20.5288 82.5601 23.1048 84.2401 24.6728 86.0321C26.2408 87.7868 27.0248 90.0641 27.0248 92.8641C27.0248 96.1495 25.7742 98.8375 23.2728 100.928C20.8088 102.981 17.2995 104.008 12.7448 104.008ZM39.8891 103.84C37.4998 103.84 35.6331 103.243 34.2891 102.048C32.9824 100.853 32.3291 98.9495 32.3291 96.3361V77.1841H28.4651V76.6241L29.8091 76.4001C30.9664 76.1388 31.9557 75.7655 32.7771 75.2801C33.6357 74.7948 34.4757 74.1415 35.2971 73.3201L39.8891 68.2241H40.4491L40.2811 76.0641H46.5531V77.1841H40.2251V97.3441C40.2251 98.6508 40.5051 99.6401 41.0651 100.312C41.6624 100.984 42.4091 101.32 43.3051 101.32C44.0891 101.32 44.7797 101.133 45.3771 100.76C45.9744 100.349 46.5717 99.8081 47.1691 99.1361L47.7291 99.6961C46.9824 100.965 45.9557 101.973 44.6491 102.72C43.3424 103.467 41.7558 103.84 39.8891 103.84ZM57.6595 103.84C55.4941 103.84 53.6648 103.224 52.1715 101.992C50.7155 100.76 49.9875 98.9868 49.9875 96.6721C49.9875 94.9175 50.8835 93.3121 52.6755 91.8561C54.4675 90.3628 57.2861 89.2428 61.1315 88.4961C61.7288 88.3841 62.4008 88.2721 63.1475 88.1601C63.8941 88.0108 64.6781 87.8615 65.4995 87.7121V83.2881C65.4995 80.7495 65.1821 78.9761 64.5475 77.9681C63.9501 76.9228 62.9981 76.4001 61.6915 76.4001C60.7955 76.4001 60.0861 76.6988 59.5635 77.2961C59.0408 77.8561 58.7048 78.8455 58.5555 80.2641L58.4435 80.8801C58.3688 82.4855 57.9768 83.6615 57.2675 84.4081C56.5581 85.1548 55.6808 85.5281 54.6355 85.5281C53.6648 85.5281 52.8621 85.2295 52.2275 84.6321C51.5928 84.0348 51.2755 83.2321 51.2755 82.2241C51.2755 80.6935 51.7981 79.4055 52.8435 78.3601C53.9261 77.3148 55.3448 76.5308 57.0995 76.0081C58.8541 75.4855 60.7581 75.2241 62.8115 75.2241C66.1341 75.2241 68.6915 76.0455 70.4835 77.6881C72.3128 79.2935 73.2275 81.9255 73.2275 85.5841V97.9601C73.2275 99.6401 74.0115 100.48 75.5795 100.48H76.8115L77.3155 100.928C76.6061 101.824 75.8221 102.515 74.9635 103C74.1421 103.485 72.9661 103.728 71.4355 103.728C69.7928 103.728 68.4861 103.355 67.5155 102.608C66.5821 101.824 65.9661 100.797 65.6675 99.5281C64.5475 100.723 63.3901 101.749 62.1955 102.608C61.0381 103.429 59.5261 103.84 57.6595 103.84ZM61.0755 100.424C61.8221 100.424 62.5128 100.256 63.1475 99.9201C63.8195 99.5468 64.6035 98.9868 65.4995 98.2401V88.8321C65.1261 88.9068 64.7528 88.9815 64.3795 89.0561C64.0061 89.1308 63.5768 89.2055 63.0915 89.2801C61.3741 89.7281 59.9928 90.4935 58.9475 91.5761C57.9395 92.6215 57.4355 94.0401 57.4355 95.8321C57.4355 97.3628 57.7901 98.5201 58.4995 99.3041C59.2088 100.051 60.0675 100.424 61.0755 100.424ZM78.3585 103V102.44L79.1985 102.216C79.9451 101.992 80.4491 101.656 80.7105 101.208C81.0091 100.76 81.1585 100.181 81.1585 99.4721V81.9441C81.1585 81.1228 81.0091 80.5255 80.7105 80.1521C80.4491 79.7415 79.9451 79.4615 79.1985 79.3121L78.3585 79.0881V78.5281L87.9905 75.2801L88.5505 75.8401L89.0545 80.6561V81.1041C89.5771 80.0588 90.2491 79.1068 91.0705 78.2481C91.9291 77.3521 92.8625 76.6241 93.8705 76.0641C94.9158 75.5041 95.9425 75.2241 96.9505 75.2241C98.3691 75.2241 99.4518 75.6161 100.198 76.4001C100.945 77.1841 101.318 78.1735 101.318 79.3681C101.318 80.6375 100.945 81.6268 100.198 82.3361C99.4891 83.0081 98.6305 83.3441 97.6225 83.3441C96.0545 83.3441 94.6731 82.5601 93.4785 80.9921L93.3665 80.8801C92.9931 80.3575 92.5638 80.0775 92.0785 80.0401C91.5931 79.9655 91.1451 80.1895 90.7345 80.7121C90.3611 81.0481 90.0438 81.4588 89.7825 81.9441C89.5585 82.3921 89.3345 82.9148 89.1105 83.5121V99.1361C89.1105 100.629 89.7638 101.563 91.0705 101.936L92.8625 102.44V103H78.3585ZM114.209 103.84C111.82 103.84 109.953 103.243 108.609 102.048C107.303 100.853 106.649 98.9495 106.649 96.3361V77.1841H102.785V76.6241L104.129 76.4001C105.287 76.1388 106.276 75.7655 107.097 75.2801C107.956 74.7948 108.796 74.1415 109.617 73.3201L114.209 68.2241H114.769L114.601 76.0641H120.873V77.1841H114.545V97.3441C114.545 98.6508 114.825 99.6401 115.385 100.312C115.983 100.984 116.729 101.32 117.625 101.32C118.409 101.32 119.1 101.133 119.697 100.76C120.295 100.349 120.892 99.8081 121.489 99.1361L122.049 99.6961C121.303 100.965 120.276 101.973 118.969 102.72C117.663 103.467 116.076 103.84 114.209 103.84ZM133.82 103.84C131.991 103.84 130.348 103.616 128.892 103.168C127.436 102.757 126.092 102.235 124.86 101.6L124.916 94.9361H125.476L127.38 98.2961C128.201 99.7895 129.097 100.909 130.068 101.656C131.076 102.365 132.345 102.72 133.876 102.72C135.668 102.72 137.105 102.328 138.188 101.544C139.308 100.723 139.868 99.6401 139.868 98.2961C139.868 97.0641 139.476 96.0561 138.692 95.2721C137.908 94.4881 136.452 93.7788 134.324 93.1441L131.972 92.4161C129.695 91.7441 127.903 90.6988 126.596 89.2801C125.289 87.8615 124.636 86.1255 124.636 84.0721C124.636 81.6081 125.607 79.5175 127.548 77.8001C129.489 76.0828 132.271 75.2241 135.892 75.2241C137.348 75.2241 138.711 75.3921 139.98 75.7281C141.287 76.0268 142.537 76.4935 143.732 77.1281L143.396 83.1761H142.836L140.876 79.7041C140.167 78.4721 139.457 77.6135 138.748 77.1281C138.076 76.6055 137.049 76.3441 135.668 76.3441C134.399 76.3441 133.204 76.6988 132.084 77.4081C130.964 78.1175 130.404 79.1255 130.404 80.4321C130.404 81.7015 130.871 82.7095 131.804 83.4561C132.775 84.2028 134.193 84.8935 136.06 85.5281L138.58 86.2561C141.268 87.0775 143.191 88.2161 144.348 89.6721C145.505 91.0908 146.084 92.8081 146.084 94.8241C146.084 97.5495 145.001 99.7335 142.836 101.376C140.708 103.019 137.703 103.84 133.82 103.84ZM160.83 103V102.44L161.95 101.992C162.696 101.731 163.182 101.376 163.406 100.928C163.667 100.48 163.798 99.9015 163.798 99.1921V69.9041C163.798 69.1575 163.667 68.5601 163.406 68.1121C163.182 67.6641 162.696 67.3095 161.95 67.0481L160.83 66.6001V66.0401H175.054V66.6001L174.102 66.9921C173.393 67.2535 172.907 67.6081 172.646 68.0561C172.384 68.4668 172.254 69.0455 172.254 69.7921V83.4001H185.638V69.7921C185.638 69.0455 185.507 68.4668 185.246 68.0561C185.022 67.6081 184.536 67.2535 183.79 66.9921L182.782 66.6001V66.0401H197.062V66.6001L195.942 67.0481C195.233 67.3095 194.747 67.6641 194.486 68.1121C194.225 68.5601 194.094 69.1575 194.094 69.9041V99.1921C194.094 99.9015 194.225 100.48 194.486 100.928C194.747 101.376 195.233 101.731 195.942 101.992L197.062 102.44V103H182.782V102.44L183.79 102.104C184.536 101.805 185.022 101.451 185.246 101.04C185.507 100.592 185.638 99.9948 185.638 99.2481V84.5201H172.254V99.2481C172.254 100.629 172.87 101.581 174.102 102.104L175.054 102.44V103H160.83ZM212.016 75.2241C214.443 75.2241 216.515 75.7281 218.232 76.7361C219.949 77.7068 221.256 79.0508 222.152 80.7681C223.085 82.4481 223.552 84.3708 223.552 86.5361C223.552 86.9468 223.533 87.3761 223.496 87.8241C223.459 88.2348 223.384 88.6081 223.272 88.9441H206.584C206.621 92.9761 207.331 95.8881 208.712 97.6801C210.131 99.4348 212.221 100.312 214.984 100.312C216.851 100.312 218.363 100.013 219.52 99.4161C220.677 98.8188 221.76 97.9415 222.768 96.7841L223.328 97.2881C222.171 99.3415 220.621 100.947 218.68 102.104C216.776 103.261 214.48 103.84 211.792 103.84C209.141 103.84 206.789 103.28 204.736 102.16C202.683 101.003 201.077 99.3601 199.92 97.2321C198.763 95.1041 198.184 92.5655 198.184 89.6161C198.184 86.5548 198.856 83.9601 200.2 81.8321C201.544 79.6668 203.261 78.0241 205.352 76.9041C207.48 75.7841 209.701 75.2241 212.016 75.2241ZM211.848 76.3441C210.765 76.3441 209.832 76.6801 209.048 77.3521C208.301 77.9868 207.704 79.1441 207.256 80.8241C206.845 82.4668 206.621 84.8001 206.584 87.8241H216.16C216.533 83.7548 216.384 80.8241 215.712 79.0321C215.04 77.2401 213.752 76.3441 211.848 76.3441ZM226.343 103V102.44L227.183 102.216C227.929 101.992 228.434 101.656 228.695 101.208C228.994 100.76 229.143 100.181 229.143 99.4721V81.9441C229.143 81.1228 228.994 80.5255 228.695 80.1521C228.434 79.7415 227.929 79.4615 227.183 79.3121L226.343 79.0881V78.5281L235.975 75.2801L236.535 75.8401L237.039 80.6561V81.1041C237.562 80.0588 238.234 79.1068 239.055 78.2481C239.914 77.3521 240.847 76.6241 241.855 76.0641C242.9 75.5041 243.927 75.2241 244.935 75.2241C246.353 75.2241 247.436 75.6161 248.183 76.4001C248.929 77.1841 249.303 78.1735 249.303 79.3681C249.303 80.6375 248.929 81.6268 248.183 82.3361C247.473 83.0081 246.615 83.3441 245.607 83.3441C244.039 83.3441 242.657 82.5601 241.463 80.9921L241.351 80.8801C240.977 80.3575 240.548 80.0775 240.063 80.0401C239.578 79.9655 239.129 80.1895 238.719 80.7121C238.345 81.0481 238.028 81.4588 237.767 81.9441C237.543 82.3921 237.319 82.9148 237.095 83.5121V99.1361C237.095 100.629 237.748 101.563 239.055 101.936L240.847 102.44V103H226.343ZM264.243 75.2241C266.669 75.2241 268.741 75.7281 270.459 76.7361C272.176 77.7068 273.483 79.0508 274.379 80.7681C275.312 82.4481 275.779 84.3708 275.779 86.5361C275.779 86.9468 275.76 87.3761 275.723 87.8241C275.685 88.2348 275.611 88.6081 275.499 88.9441H258.811C258.848 92.9761 259.557 95.8881 260.939 97.6801C262.357 99.4348 264.448 100.312 267.211 100.312C269.077 100.312 270.589 100.013 271.747 99.4161C272.904 98.8188 273.987 97.9415 274.995 96.7841L275.555 97.2881C274.397 99.3415 272.848 100.947 270.907 102.104C269.003 103.261 266.707 103.84 264.019 103.84C261.368 103.84 259.016 103.28 256.963 102.16C254.909 101.003 253.304 99.3601 252.147 97.2321C250.989 95.1041 250.411 92.5655 250.411 89.6161C250.411 86.5548 251.083 83.9601 252.427 81.8321C253.771 79.6668 255.488 78.0241 257.579 76.9041C259.707 75.7841 261.928 75.2241 264.243 75.2241ZM264.075 76.3441C262.992 76.3441 262.059 76.6801 261.275 77.3521C260.528 77.9868 259.931 79.1441 259.483 80.8241C259.072 82.4668 258.848 84.8001 258.811 87.8241H268.387C268.76 83.7548 268.611 80.8241 267.939 79.0321C267.267 77.2401 265.979 76.3441 264.075 76.3441ZM285.138 103.84C283.794 103.84 282.656 103.373 281.722 102.44C280.789 101.507 280.322 100.387 280.322 99.0801C280.322 97.7735 280.789 96.6348 281.722 95.6641C282.656 94.6935 283.794 94.2081 285.138 94.2081C286.482 94.2081 287.621 94.6935 288.554 95.6641C289.488 96.6348 289.954 97.7735 289.954 99.0801C289.954 100.387 289.488 101.507 288.554 102.44C287.621 103.373 286.482 103.84 285.138 103.84Z"/>
</mask>
<path d="M8.30639 41.0001V40.4401L9.59439 39.9361C10.2291 39.6748 10.6584 39.3388 10.8824 38.9281C11.1437 38.4801 11.2744 37.8828 11.2744 37.1361V7.90414C11.2744 7.15748 11.1624 6.57881 10.9384 6.16814C10.7517 5.72014 10.3037 5.36548 9.59439 5.10414L8.30639 4.60014V4.04014H35.1304L35.4664 12.6641H34.9064L32.4984 7.40014C32.1624 6.72814 31.8077 6.18681 31.4344 5.77614C31.0611 5.36547 30.5011 5.16014 29.7544 5.16014H19.6744V21.3441H25.6664C26.4131 21.3441 26.9731 21.1575 27.3464 20.7841C27.7571 20.3735 28.1117 19.8321 28.4104 19.1601L29.5304 16.9201H30.0904V27.0001H29.5304L28.4104 24.6481C28.0744 23.9761 27.7197 23.4535 27.3464 23.0801C26.9731 22.6695 26.4131 22.4641 25.6664 22.4641H19.6744V39.8801H30.9864C31.7331 39.8801 32.3117 39.6935 32.7224 39.3201C33.1331 38.9095 33.4691 38.3495 33.7304 37.6401L36.0264 32.3761H36.5864L36.2504 41.0001H8.30639ZM39.2569 41.0001V40.4401L40.0409 40.2161C41.3476 39.8428 42.0009 38.9281 42.0009 37.4721V19.9441C42.0009 19.1228 41.8702 18.5255 41.6089 18.1521C41.3476 17.7415 40.8436 17.4615 40.0969 17.3121L39.2569 17.0881V16.5281L48.8329 13.2801L49.3929 13.8401L49.8409 17.2001C51.1476 16.0428 52.6222 15.0908 54.2649 14.3441C55.9076 13.5975 57.5316 13.2241 59.1369 13.2241C61.6009 13.2241 63.4862 13.8961 64.7929 15.2401C66.1369 16.5841 66.8089 18.6375 66.8089 21.4001V37.5281C66.8089 38.9841 67.5182 39.8988 68.9369 40.2721L69.4409 40.4401V41.0001H56.2249V40.4401L56.9529 40.2161C58.2596 39.8055 58.9129 38.8908 58.9129 37.4721V19.6081C58.9129 17.2188 57.7182 16.0241 55.3289 16.0241C53.6862 16.0241 51.8942 16.8455 49.9529 18.4881V37.5281C49.9529 38.9841 50.6062 39.8988 51.9129 40.2721L52.4169 40.4401V41.0001H39.2569ZM83.5039 41.8401C81.3012 41.8401 79.3226 41.3548 77.5679 40.3841C75.8132 39.3761 74.4132 37.8455 73.3679 35.7921C72.3599 33.7015 71.8559 31.0321 71.8559 27.7841C71.8559 24.4988 72.4346 21.7921 73.5919 19.6641C74.7492 17.4988 76.2799 15.8935 78.1839 14.8481C80.0879 13.7655 82.1599 13.2241 84.3999 13.2241C85.7066 13.2241 86.9572 13.3548 88.1519 13.6161C89.3466 13.8775 90.4106 14.2695 91.3439 14.7921V7.51214C91.3439 6.72814 91.2132 6.14948 90.9519 5.77614C90.7279 5.40281 90.2239 5.14147 89.4399 4.99214L88.3759 4.76814V4.20814L98.5679 1.74414L99.1839 2.24814L98.9599 10.0881V37.4721C98.9599 38.2188 99.0906 38.8348 99.3519 39.3201C99.6132 39.7681 100.099 40.0855 100.808 40.2721L101.312 40.4401V41.0001L91.7359 41.6161L91.2319 39.6001C90.2239 40.2721 89.0666 40.8135 87.7599 41.2241C86.4906 41.6348 85.0719 41.8401 83.5039 41.8401ZM86.7519 39.7681C88.3199 39.7681 89.7572 39.3015 91.0639 38.3681V16.1361C89.6826 15.2401 88.2639 14.7921 86.8079 14.7921C85.0159 14.7921 83.4852 15.8375 82.2159 17.9281C80.9466 19.9815 80.3119 23.2295 80.3119 27.6721C80.3119 32.1148 80.9092 35.2508 82.1039 37.0801C83.2986 38.8721 84.8479 39.7681 86.7519 39.7681ZM104.58 27.5601V26.0481H118.692V27.5601H104.58ZM132.694 41.8401C130.304 41.8401 128.438 41.2428 127.094 40.0481C125.787 38.8535 125.134 36.9495 125.134 34.3361V15.1841H121.27V14.6241L122.614 14.4001C123.771 14.1388 124.76 13.7655 125.582 13.2801C126.44 12.7948 127.28 12.1415 128.102 11.3201L132.694 6.22414H133.254L133.086 14.0641H139.358V15.1841H133.03V35.3441C133.03 36.6508 133.31 37.6401 133.87 38.3121C134.467 38.9841 135.214 39.3201 136.11 39.3201C136.894 39.3201 137.584 39.1335 138.182 38.7601C138.779 38.3495 139.376 37.8081 139.974 37.1361L140.534 37.6961C139.787 38.9655 138.76 39.9735 137.454 40.7201C136.147 41.4668 134.56 41.8401 132.694 41.8401ZM156.292 41.8401C153.455 41.8401 150.991 41.2615 148.9 40.1041C146.809 38.9095 145.185 37.2295 144.028 35.0641C142.908 32.8988 142.348 30.3601 142.348 27.4481C142.348 24.5361 142.945 22.0161 144.14 19.8881C145.372 17.7601 147.033 16.1175 149.124 14.9601C151.252 13.8028 153.641 13.2241 156.292 13.2241C158.943 13.2241 161.313 13.8028 163.404 14.9601C165.495 16.0801 167.137 17.7041 168.332 19.8321C169.564 21.9601 170.18 24.4988 170.18 27.4481C170.18 30.3975 169.601 32.9548 168.444 35.1201C167.324 37.2481 165.719 38.9095 163.628 40.1041C161.575 41.2615 159.129 41.8401 156.292 41.8401ZM156.292 40.7201C157.599 40.7201 158.644 40.3468 159.428 39.6001C160.212 38.8535 160.772 37.5281 161.108 35.6241C161.481 33.7201 161.668 31.0321 161.668 27.5601C161.668 24.0508 161.481 21.3441 161.108 19.4401C160.772 17.5361 160.212 16.2108 159.428 15.4641C158.644 14.7175 157.599 14.3441 156.292 14.3441C154.985 14.3441 153.921 14.7175 153.1 15.4641C152.316 16.2108 151.737 17.5361 151.364 19.4401C151.028 21.3441 150.86 24.0508 150.86 27.5601C150.86 31.0321 151.028 33.7201 151.364 35.6241C151.737 37.5281 152.316 38.8535 153.1 39.6001C153.921 40.3468 154.985 40.7201 156.292 40.7201ZM173.978 27.5601V26.0481H188.09V27.5601H173.978ZM191.564 41.0001V40.4401L192.852 39.9361C193.487 39.6748 193.916 39.3388 194.14 38.9281C194.402 38.4801 194.532 37.8828 194.532 37.1361V7.90414C194.532 7.15748 194.42 6.57881 194.196 6.16814C194.01 5.72014 193.562 5.36548 192.852 5.10414L191.564 4.60014V4.04014H218.388L218.724 12.6641H218.164L215.756 7.40014C215.42 6.72814 215.066 6.18681 214.692 5.77614C214.319 5.36547 213.759 5.16014 213.012 5.16014H202.932V21.3441H208.924C209.671 21.3441 210.231 21.1575 210.604 20.7841C211.015 20.3735 211.37 19.8321 211.668 19.1601L212.788 16.9201H213.348V27.0001H212.788L211.668 24.6481C211.332 23.9761 210.978 23.4535 210.604 23.0801C210.231 22.6695 209.671 22.4641 208.924 22.4641H202.932V39.8801H214.244C214.991 39.8801 215.57 39.6935 215.98 39.3201C216.391 38.9095 216.727 38.3495 216.988 37.6401L219.284 32.3761H219.844L219.508 41.0001H191.564ZM222.515 41.0001V40.4401L223.299 40.2161C224.605 39.8428 225.259 38.9281 225.259 37.4721V19.9441C225.259 19.1228 225.128 18.5255 224.867 18.1521C224.605 17.7415 224.101 17.4615 223.355 17.3121L222.515 17.0881V16.5281L232.091 13.2801L232.651 13.8401L233.099 17.2001C234.405 16.0428 235.88 15.0908 237.523 14.3441C239.165 13.5975 240.789 13.2241 242.395 13.2241C244.859 13.2241 246.744 13.8961 248.051 15.2401C249.395 16.5841 250.067 18.6375 250.067 21.4001V37.5281C250.067 38.9841 250.776 39.8988 252.195 40.2721L252.699 40.4401V41.0001H239.483V40.4401L240.211 40.2161C241.517 39.8055 242.171 38.8908 242.171 37.4721V19.6081C242.171 17.2188 240.976 16.0241 238.587 16.0241C236.944 16.0241 235.152 16.8455 233.211 18.4881V37.5281C233.211 38.9841 233.864 39.8988 235.171 40.2721L235.675 40.4401V41.0001H222.515ZM266.762 41.8401C264.559 41.8401 262.58 41.3548 260.826 40.3841C259.071 39.3761 257.671 37.8455 256.626 35.7921C255.618 33.7015 255.114 31.0321 255.114 27.7841C255.114 24.4988 255.692 21.7921 256.85 19.6641C258.007 17.4988 259.538 15.8935 261.442 14.8481C263.346 13.7655 265.418 13.2241 267.658 13.2241C268.964 13.2241 270.215 13.3548 271.41 13.6161C272.604 13.8775 273.668 14.2695 274.602 14.7921V7.51214C274.602 6.72814 274.471 6.14948 274.21 5.77614C273.986 5.40281 273.482 5.14147 272.698 4.99214L271.634 4.76814V4.20814L281.826 1.74414L282.442 2.24814L282.218 10.0881V37.4721C282.218 38.2188 282.348 38.8348 282.61 39.3201C282.871 39.7681 283.356 40.0855 284.066 40.2721L284.57 40.4401V41.0001L274.994 41.6161L274.49 39.6001C273.482 40.2721 272.324 40.8135 271.018 41.2241C269.748 41.6348 268.33 41.8401 266.762 41.8401ZM270.01 39.7681C271.578 39.7681 273.015 39.3015 274.322 38.3681V16.1361C272.94 15.2401 271.522 14.7921 270.066 14.7921C268.274 14.7921 266.743 15.8375 265.474 17.9281C264.204 19.9815 263.57 23.2295 263.57 27.6721C263.57 32.1148 264.167 35.2508 265.362 37.0801C266.556 38.8721 268.106 39.7681 270.01 39.7681ZM12.7448 104.008C10.6915 104.008 8.60083 103.747 6.47283 103.224C4.34483 102.739 2.5715 102.085 1.15283 101.264L1.43283 93.6481H1.99283L3.72883 97.2881C4.2515 98.3335 4.8115 99.2668 5.40883 100.088C6.00617 100.872 6.8275 101.488 7.87283 101.936C8.6195 102.309 9.32883 102.571 10.0008 102.72C10.7102 102.832 11.4942 102.888 12.3528 102.888C14.6302 102.888 16.4222 102.272 17.7288 101.04C19.0728 99.8081 19.7448 98.2215 19.7448 96.2801C19.7448 94.4508 19.2968 93.0321 18.4008 92.0241C17.5048 90.9788 16.0675 89.9708 14.0888 89.0001L11.7928 87.9921C8.58217 86.5735 6.06217 84.9495 4.23283 83.1201C2.44083 81.2535 1.54483 78.7895 1.54483 75.7281C1.54483 73.5255 2.10483 71.6215 3.22483 70.0161C4.38217 68.4108 5.96883 67.1788 7.98483 66.3201C10.0382 65.4615 12.4275 65.0321 15.1528 65.0321C17.1315 65.0321 18.9982 65.2935 20.7528 65.8161C22.5448 66.3388 24.0942 67.0481 25.4008 67.9441L25.0648 74.6641H24.5048L22.2088 70.4641C21.5742 69.1575 20.9395 68.2428 20.3048 67.7201C19.6702 67.1601 18.9422 66.7681 18.1208 66.5441C17.6355 66.3948 17.1875 66.3015 16.7768 66.2641C16.3662 66.1895 15.8435 66.1521 15.2088 66.1521C13.3048 66.1521 11.6995 66.7121 10.3928 67.8321C9.08617 68.9148 8.43283 70.3895 8.43283 72.2561C8.43283 74.1601 8.93683 75.6908 9.94483 76.8481C10.9528 77.9681 12.4275 78.9761 14.3688 79.8721L16.9448 80.9921C20.5288 82.5601 23.1048 84.2401 24.6728 86.0321C26.2408 87.7868 27.0248 90.0641 27.0248 92.8641C27.0248 96.1495 25.7742 98.8375 23.2728 100.928C20.8088 102.981 17.2995 104.008 12.7448 104.008ZM39.8891 103.84C37.4998 103.84 35.6331 103.243 34.2891 102.048C32.9824 100.853 32.3291 98.9495 32.3291 96.3361V77.1841H28.4651V76.6241L29.8091 76.4001C30.9664 76.1388 31.9557 75.7655 32.7771 75.2801C33.6357 74.7948 34.4757 74.1415 35.2971 73.3201L39.8891 68.2241H40.4491L40.2811 76.0641H46.5531V77.1841H40.2251V97.3441C40.2251 98.6508 40.5051 99.6401 41.0651 100.312C41.6624 100.984 42.4091 101.32 43.3051 101.32C44.0891 101.32 44.7797 101.133 45.3771 100.76C45.9744 100.349 46.5717 99.8081 47.1691 99.1361L47.7291 99.6961C46.9824 100.965 45.9557 101.973 44.6491 102.72C43.3424 103.467 41.7558 103.84 39.8891 103.84ZM57.6595 103.84C55.4941 103.84 53.6648 103.224 52.1715 101.992C50.7155 100.76 49.9875 98.9868 49.9875 96.6721C49.9875 94.9175 50.8835 93.3121 52.6755 91.8561C54.4675 90.3628 57.2861 89.2428 61.1315 88.4961C61.7288 88.3841 62.4008 88.2721 63.1475 88.1601C63.8941 88.0108 64.6781 87.8615 65.4995 87.7121V83.2881C65.4995 80.7495 65.1821 78.9761 64.5475 77.9681C63.9501 76.9228 62.9981 76.4001 61.6915 76.4001C60.7955 76.4001 60.0861 76.6988 59.5635 77.2961C59.0408 77.8561 58.7048 78.8455 58.5555 80.2641L58.4435 80.8801C58.3688 82.4855 57.9768 83.6615 57.2675 84.4081C56.5581 85.1548 55.6808 85.5281 54.6355 85.5281C53.6648 85.5281 52.8621 85.2295 52.2275 84.6321C51.5928 84.0348 51.2755 83.2321 51.2755 82.2241C51.2755 80.6935 51.7981 79.4055 52.8435 78.3601C53.9261 77.3148 55.3448 76.5308 57.0995 76.0081C58.8541 75.4855 60.7581 75.2241 62.8115 75.2241C66.1341 75.2241 68.6915 76.0455 70.4835 77.6881C72.3128 79.2935 73.2275 81.9255 73.2275 85.5841V97.9601C73.2275 99.6401 74.0115 100.48 75.5795 100.48H76.8115L77.3155 100.928C76.6061 101.824 75.8221 102.515 74.9635 103C74.1421 103.485 72.9661 103.728 71.4355 103.728C69.7928 103.728 68.4861 103.355 67.5155 102.608C66.5821 101.824 65.9661 100.797 65.6675 99.5281C64.5475 100.723 63.3901 101.749 62.1955 102.608C61.0381 103.429 59.5261 103.84 57.6595 103.84ZM61.0755 100.424C61.8221 100.424 62.5128 100.256 63.1475 99.9201C63.8195 99.5468 64.6035 98.9868 65.4995 98.2401V88.8321C65.1261 88.9068 64.7528 88.9815 64.3795 89.0561C64.0061 89.1308 63.5768 89.2055 63.0915 89.2801C61.3741 89.7281 59.9928 90.4935 58.9475 91.5761C57.9395 92.6215 57.4355 94.0401 57.4355 95.8321C57.4355 97.3628 57.7901 98.5201 58.4995 99.3041C59.2088 100.051 60.0675 100.424 61.0755 100.424ZM78.3585 103V102.44L79.1985 102.216C79.9451 101.992 80.4491 101.656 80.7105 101.208C81.0091 100.76 81.1585 100.181 81.1585 99.4721V81.9441C81.1585 81.1228 81.0091 80.5255 80.7105 80.1521C80.4491 79.7415 79.9451 79.4615 79.1985 79.3121L78.3585 79.0881V78.5281L87.9905 75.2801L88.5505 75.8401L89.0545 80.6561V81.1041C89.5771 80.0588 90.2491 79.1068 91.0705 78.2481C91.9291 77.3521 92.8625 76.6241 93.8705 76.0641C94.9158 75.5041 95.9425 75.2241 96.9505 75.2241C98.3691 75.2241 99.4518 75.6161 100.198 76.4001C100.945 77.1841 101.318 78.1735 101.318 79.3681C101.318 80.6375 100.945 81.6268 100.198 82.3361C99.4891 83.0081 98.6305 83.3441 97.6225 83.3441C96.0545 83.3441 94.6731 82.5601 93.4785 80.9921L93.3665 80.8801C92.9931 80.3575 92.5638 80.0775 92.0785 80.0401C91.5931 79.9655 91.1451 80.1895 90.7345 80.7121C90.3611 81.0481 90.0438 81.4588 89.7825 81.9441C89.5585 82.3921 89.3345 82.9148 89.1105 83.5121V99.1361C89.1105 100.629 89.7638 101.563 91.0705 101.936L92.8625 102.44V103H78.3585ZM114.209 103.84C111.82 103.84 109.953 103.243 108.609 102.048C107.303 100.853 106.649 98.9495 106.649 96.3361V77.1841H102.785V76.6241L104.129 76.4001C105.287 76.1388 106.276 75.7655 107.097 75.2801C107.956 74.7948 108.796 74.1415 109.617 73.3201L114.209 68.2241H114.769L114.601 76.0641H120.873V77.1841H114.545V97.3441C114.545 98.6508 114.825 99.6401 115.385 100.312C115.983 100.984 116.729 101.32 117.625 101.32C118.409 101.32 119.1 101.133 119.697 100.76C120.295 100.349 120.892 99.8081 121.489 99.1361L122.049 99.6961C121.303 100.965 120.276 101.973 118.969 102.72C117.663 103.467 116.076 103.84 114.209 103.84ZM133.82 103.84C131.991 103.84 130.348 103.616 128.892 103.168C127.436 102.757 126.092 102.235 124.86 101.6L124.916 94.9361H125.476L127.38 98.2961C128.201 99.7895 129.097 100.909 130.068 101.656C131.076 102.365 132.345 102.72 133.876 102.72C135.668 102.72 137.105 102.328 138.188 101.544C139.308 100.723 139.868 99.6401 139.868 98.2961C139.868 97.0641 139.476 96.0561 138.692 95.2721C137.908 94.4881 136.452 93.7788 134.324 93.1441L131.972 92.4161C129.695 91.7441 127.903 90.6988 126.596 89.2801C125.289 87.8615 124.636 86.1255 124.636 84.0721C124.636 81.6081 125.607 79.5175 127.548 77.8001C129.489 76.0828 132.271 75.2241 135.892 75.2241C137.348 75.2241 138.711 75.3921 139.98 75.7281C141.287 76.0268 142.537 76.4935 143.732 77.1281L143.396 83.1761H142.836L140.876 79.7041C140.167 78.4721 139.457 77.6135 138.748 77.1281C138.076 76.6055 137.049 76.3441 135.668 76.3441C134.399 76.3441 133.204 76.6988 132.084 77.4081C130.964 78.1175 130.404 79.1255 130.404 80.4321C130.404 81.7015 130.871 82.7095 131.804 83.4561C132.775 84.2028 134.193 84.8935 136.06 85.5281L138.58 86.2561C141.268 87.0775 143.191 88.2161 144.348 89.6721C145.505 91.0908 146.084 92.8081 146.084 94.8241C146.084 97.5495 145.001 99.7335 142.836 101.376C140.708 103.019 137.703 103.84 133.82 103.84ZM160.83 103V102.44L161.95 101.992C162.696 101.731 163.182 101.376 163.406 100.928C163.667 100.48 163.798 99.9015 163.798 99.1921V69.9041C163.798 69.1575 163.667 68.5601 163.406 68.1121C163.182 67.6641 162.696 67.3095 161.95 67.0481L160.83 66.6001V66.0401H175.054V66.6001L174.102 66.9921C173.393 67.2535 172.907 67.6081 172.646 68.0561C172.384 68.4668 172.254 69.0455 172.254 69.7921V83.4001H185.638V69.7921C185.638 69.0455 185.507 68.4668 185.246 68.0561C185.022 67.6081 184.536 67.2535 183.79 66.9921L182.782 66.6001V66.0401H197.062V66.6001L195.942 67.0481C195.233 67.3095 194.747 67.6641 194.486 68.1121C194.225 68.5601 194.094 69.1575 194.094 69.9041V99.1921C194.094 99.9015 194.225 100.48 194.486 100.928C194.747 101.376 195.233 101.731 195.942 101.992L197.062 102.44V103H182.782V102.44L183.79 102.104C184.536 101.805 185.022 101.451 185.246 101.04C185.507 100.592 185.638 99.9948 185.638 99.2481V84.5201H172.254V99.2481C172.254 100.629 172.87 101.581 174.102 102.104L175.054 102.44V103H160.83ZM212.016 75.2241C214.443 75.2241 216.515 75.7281 218.232 76.7361C219.949 77.7068 221.256 79.0508 222.152 80.7681C223.085 82.4481 223.552 84.3708 223.552 86.5361C223.552 86.9468 223.533 87.3761 223.496 87.8241C223.459 88.2348 223.384 88.6081 223.272 88.9441H206.584C206.621 92.9761 207.331 95.8881 208.712 97.6801C210.131 99.4348 212.221 100.312 214.984 100.312C216.851 100.312 218.363 100.013 219.52 99.4161C220.677 98.8188 221.76 97.9415 222.768 96.7841L223.328 97.2881C222.171 99.3415 220.621 100.947 218.68 102.104C216.776 103.261 214.48 103.84 211.792 103.84C209.141 103.84 206.789 103.28 204.736 102.16C202.683 101.003 201.077 99.3601 199.92 97.2321C198.763 95.1041 198.184 92.5655 198.184 89.6161C198.184 86.5548 198.856 83.9601 200.2 81.8321C201.544 79.6668 203.261 78.0241 205.352 76.9041C207.48 75.7841 209.701 75.2241 212.016 75.2241ZM211.848 76.3441C210.765 76.3441 209.832 76.6801 209.048 77.3521C208.301 77.9868 207.704 79.1441 207.256 80.8241C206.845 82.4668 206.621 84.8001 206.584 87.8241H216.16C216.533 83.7548 216.384 80.8241 215.712 79.0321C215.04 77.2401 213.752 76.3441 211.848 76.3441ZM226.343 103V102.44L227.183 102.216C227.929 101.992 228.434 101.656 228.695 101.208C228.994 100.76 229.143 100.181 229.143 99.4721V81.9441C229.143 81.1228 228.994 80.5255 228.695 80.1521C228.434 79.7415 227.929 79.4615 227.183 79.3121L226.343 79.0881V78.5281L235.975 75.2801L236.535 75.8401L237.039 80.6561V81.1041C237.562 80.0588 238.234 79.1068 239.055 78.2481C239.914 77.3521 240.847 76.6241 241.855 76.0641C242.9 75.5041 243.927 75.2241 244.935 75.2241C246.353 75.2241 247.436 75.6161 248.183 76.4001C248.929 77.1841 249.303 78.1735 249.303 79.3681C249.303 80.6375 248.929 81.6268 248.183 82.3361C247.473 83.0081 246.615 83.3441 245.607 83.3441C244.039 83.3441 242.657 82.5601 241.463 80.9921L241.351 80.8801C240.977 80.3575 240.548 80.0775 240.063 80.0401C239.578 79.9655 239.129 80.1895 238.719 80.7121C238.345 81.0481 238.028 81.4588 237.767 81.9441C237.543 82.3921 237.319 82.9148 237.095 83.5121V99.1361C237.095 100.629 237.748 101.563 239.055 101.936L240.847 102.44V103H226.343ZM264.243 75.2241C266.669 75.2241 268.741 75.7281 270.459 76.7361C272.176 77.7068 273.483 79.0508 274.379 80.7681C275.312 82.4481 275.779 84.3708 275.779 86.5361C275.779 86.9468 275.76 87.3761 275.723 87.8241C275.685 88.2348 275.611 88.6081 275.499 88.9441H258.811C258.848 92.9761 259.557 95.8881 260.939 97.6801C262.357 99.4348 264.448 100.312 267.211 100.312C269.077 100.312 270.589 100.013 271.747 99.4161C272.904 98.8188 273.987 97.9415 274.995 96.7841L275.555 97.2881C274.397 99.3415 272.848 100.947 270.907 102.104C269.003 103.261 266.707 103.84 264.019 103.84C261.368 103.84 259.016 103.28 256.963 102.16C254.909 101.003 253.304 99.3601 252.147 97.2321C250.989 95.1041 250.411 92.5655 250.411 89.6161C250.411 86.5548 251.083 83.9601 252.427 81.8321C253.771 79.6668 255.488 78.0241 257.579 76.9041C259.707 75.7841 261.928 75.2241 264.243 75.2241ZM264.075 76.3441C262.992 76.3441 262.059 76.6801 261.275 77.3521C260.528 77.9868 259.931 79.1441 259.483 80.8241C259.072 82.4668 258.848 84.8001 258.811 87.8241H268.387C268.76 83.7548 268.611 80.8241 267.939 79.0321C267.267 77.2401 265.979 76.3441 264.075 76.3441ZM285.138 103.84C283.794 103.84 282.656 103.373 281.722 102.44C280.789 101.507 280.322 100.387 280.322 99.0801C280.322 97.7735 280.789 96.6348 281.722 95.6641C282.656 94.6935 283.794 94.2081 285.138 94.2081C286.482 94.2081 287.621 94.6935 288.554 95.6641C289.488 96.6348 289.954 97.7735 289.954 99.0801C289.954 100.387 289.488 101.507 288.554 102.44C287.621 103.373 286.482 103.84 285.138 103.84Z" stroke="url(#paint0_linear_1941_4776)" stroke-width="2" mask="url(#path-1-outside-1_1941_4776)"/>
</g>
<defs>
<linearGradient id="paint0_linear_1941_4776" x1="145.554" y1="1.74414" x2="145.554" y2="104.008" gradientUnits="userSpaceOnUse">
<stop stop-color="#C9037D"/>
<stop offset="1" stop-color="#6814EC"/>
</linearGradient>
</defs>
</svg>
