<svg width="174" height="45" viewBox="0 0 174 45" fill="none" xmlns="http://www.w3.org/2000/svg">
<path d="M23.8577 13.1411C27.4218 13.2898 30.9479 13.1083 34.3495 13.6599C39.1449 14.4416 41.751 18.3153 41.4656 23.3631C41.3373 25.472 40.4481 27.4627 38.9632 28.9657C37.4784 30.4687 35.4986 31.382 33.3914 31.5359C30.2544 31.7867 27.0794 31.5843 23.8577 31.5843V13.1411ZM28.5372 17.0217V27.9908C29.5004 27.9908 30.3928 27.9459 31.2799 27.9908C34.4377 28.1759 36.6408 26.0713 36.755 22.6645C36.8708 19.3407 34.7005 17.0598 31.3837 17.0165C30.462 17.0113 29.542 17.0217 28.5372 17.0217V17.0217Z" fill="white"/>
<path d="M144.943 13.082C149.675 13.1356 153.536 15.9423 154.591 20.1325C154.925 21.4122 154.984 22.7483 154.764 24.0526C154.544 25.3568 154.051 26.5997 153.315 27.6991C152.58 28.7985 151.62 29.7296 150.498 30.4308C149.377 31.1321 148.119 31.5876 146.809 31.7674C143.439 32.2654 140.345 31.6308 137.836 29.2426C135.027 26.569 134.275 23.2245 135.415 19.5791C136.57 15.9008 139.328 13.9553 143.044 13.2861C143.672 13.1737 144.308 13.1477 144.943 13.082ZM144.943 17.0595C142.048 17.0595 139.729 19.458 139.712 22.4757C139.695 25.4934 142.045 28.0095 144.936 28.0095C147.828 28.0095 150.069 25.6144 150.079 22.5293C150.09 19.4442 147.855 17.0543 144.943 17.0526V17.0595Z" fill="white"/>
<path d="M84.6505 22.4793C84.6246 16.5996 89.6846 12.5599 95.732 13.1981C99.7094 13.6165 102.699 15.5655 104.064 19.4565C106.013 25.018 102.367 30.8821 96.5223 31.7762C94.4246 32.0944 92.3909 31.9301 90.4247 31.1208C86.826 29.6335 84.6453 26.3634 84.6505 22.4793ZM94.6079 17.0527C91.7182 17.0648 89.4044 19.4841 89.4027 22.4984C89.4009 25.5126 91.7615 28.0097 94.6564 28.0028C97.5513 27.9959 99.7665 25.5817 99.7648 22.4949C99.7631 19.4081 97.5253 17.0423 94.6079 17.0527Z" fill="white"/>
<path d="M45.6957 13.314H50.3199V14.2513C50.3199 17.4488 50.3061 20.6498 50.3199 23.8421C50.332 25.8689 51.2278 27.2575 52.8015 27.7953C55.4767 28.7119 57.8701 27.031 57.903 24.1637C57.941 20.878 57.9133 17.5923 57.9151 14.3066V13.3313H62.5635V14.2547C62.5635 17.3364 62.503 20.4198 62.5756 23.4997C62.7261 29.7771 58.1503 32.397 52.9485 31.8592C49.6973 31.5237 47.195 30.0538 46.109 26.7871C45.8373 25.9677 45.6927 25.1116 45.6801 24.2485C45.6317 20.7639 45.6576 17.2776 45.6594 13.793C45.6576 13.6546 45.6801 13.5163 45.6957 13.314Z" fill="white"/>
<path d="M159.764 25.3622C161.628 26.8027 163.585 27.8092 165.854 28.0444C166.47 28.1084 167.165 28.0997 167.713 27.8714C168.165 27.6795 168.689 27.1382 168.751 26.6903C168.813 26.2424 168.478 25.5421 168.09 25.2602C167.483 24.8175 166.707 24.6013 165.97 24.3488C164.694 23.9078 163.376 23.5914 162.126 23.076C160.277 22.3099 159.158 20.923 159.099 18.8444C159.041 16.7657 159.964 15.1851 161.775 14.1562C164.888 12.3871 170.928 12.9093 173.657 15.2163C173.109 16.3576 172.552 17.5163 172.033 18.5919C170.404 18.0454 168.848 17.4748 167.258 17.0148C166.67 16.8418 165.999 16.873 165.375 16.93C164.751 16.9871 164.185 17.2465 164.054 17.9676C163.988 18.2681 164.026 18.5821 164.163 18.8576C164.3 19.1331 164.527 19.3536 164.806 19.4825C165.367 19.7718 165.949 20.0197 166.546 20.2244C168.004 20.7432 169.529 21.1271 170.925 21.7808C173.29 22.8979 174.221 25.0786 173.586 27.6069C173.161 29.3016 172.057 30.462 170.473 31.0655C166.115 32.7205 162.11 31.7676 158.368 29.2238C158.282 29.1354 158.22 29.0268 158.187 28.9081C158.154 28.7893 158.151 28.6642 158.179 28.5442C158.664 27.4996 159.2 26.4845 159.764 25.3622Z" fill="white"/>
<path d="M80.8406 24.9195H72.6471V31.6638H67.9883V13.333H81.5254V16.9041H72.6799V21.1928H80.8406V24.9195Z" fill="white"/>
<path d="M113.71 27.799H121.492V31.6692H109.113V13.3384H113.71V27.799Z" fill="white"/>
<path d="M130.441 13.3413V31.6721H125.886V13.3413H130.441Z" fill="white"/>
<path fill-rule="evenodd" clip-rule="evenodd" d="M0 11H19.9166V34H0V11ZM17.2 13.2151V16.9193L7.37048 16.8726V20.5768H16.2506V24.3277H7.32206V28.0319H17.2V31.7846H2.71687V13.2151H17.2Z" fill="white"/>
</svg>
