<svg width="144" height="45" viewBox="0 0 144 45" fill="none" xmlns="http://www.w3.org/2000/svg">
<path d="M13.4758 18.9426C14.789 19.6265 15.8175 20.6239 16.5613 21.9349C17.3051 23.2459 17.6771 24.8134 17.6771 26.6374V35.5291C17.6771 35.8939 17.5492 36.2017 17.2936 36.4526C17.0379 36.7033 16.7241 36.8287 16.3522 36.8287C15.9571 36.8287 15.6316 36.7033 15.3759 36.4526C15.1202 36.2017 14.9924 35.8939 14.9924 35.5291V26.6374C14.9924 24.6082 14.4172 23.0636 13.2666 22.0034C12.116 20.9432 10.611 20.413 8.75141 20.413C7.61235 20.413 6.58383 20.6297 5.66575 21.0629C4.74755 21.4961 4.02122 22.0945 3.48663 22.8583C2.95204 23.6221 2.6847 24.4713 2.6847 25.4062V35.5291C2.6847 35.9167 2.56261 36.2302 2.31856 36.4696C2.07451 36.709 1.75496 36.8287 1.35982 36.8287C0.964676 36.8287 0.639197 36.709 0.383496 36.4696C0.127795 36.2302 0 35.9167 0 35.5291V11.4529C0 11.0653 0.127795 10.7461 0.383496 10.4952C0.639197 10.2446 0.964676 10.1191 1.35982 10.1191C1.75496 10.1191 2.07451 10.2446 2.31856 10.4954C2.56272 10.7461 2.6847 11.0653 2.6847 11.453V20.6182C3.4518 19.7747 4.38153 19.1135 5.474 18.6347C6.56647 18.156 7.7519 17.9165 9.0303 17.9165C10.6807 17.9165 12.1624 18.2586 13.4758 18.9425V18.9426Z" fill="white"/>
<path fill-rule="evenodd" clip-rule="evenodd" d="M37.2193 19.1985C38.6953 20.0306 39.8575 21.1763 40.7059 22.6355C41.5543 24.0946 41.9785 25.7134 41.9785 27.4918V35.5285C41.9785 35.8933 41.8507 36.2011 41.595 36.452C41.3393 36.7027 41.0139 36.8281 40.6188 36.8281C40.2236 36.8281 39.8982 36.7085 39.6425 36.469C39.3868 36.2296 39.259 35.9161 39.259 35.5285V33.4766C38.4454 34.571 37.411 35.4316 36.1559 36.0586C34.9007 36.6856 33.5177 36.9991 32.0068 36.9991C30.2403 36.9991 28.6423 36.583 27.2128 35.7508C25.7832 34.9187 24.6559 33.7787 23.8308 32.331C23.0055 30.8831 22.593 29.27 22.593 27.4918C22.593 25.7134 23.0172 24.0946 23.8656 22.6355C24.714 21.1763 25.8763 20.0306 27.3522 19.1985C28.8282 18.3663 30.4727 17.9502 32.2858 17.9502C34.0988 17.9502 35.7433 18.3663 37.2193 19.1985V19.1985ZM35.8771 33.6817C36.9462 33.0661 37.7888 32.2169 38.4048 31.1339C39.0207 30.0509 39.3287 28.8369 39.3287 27.4917C39.3287 26.1465 39.0207 24.9324 38.4048 23.8495C37.7888 22.7665 36.9462 21.9115 35.8771 21.2845C34.8078 20.6575 33.6107 20.3441 32.2858 20.3441C30.9609 20.3441 29.758 20.6575 28.6772 21.2845C27.5963 21.9115 26.748 22.7665 26.132 23.8495C25.5159 24.9324 25.208 26.1465 25.208 27.4917C25.208 28.8369 25.5159 30.0509 26.132 31.1339C26.748 32.2169 27.5963 33.0661 28.6772 33.6817C29.758 34.2974 30.9609 34.6052 32.2858 34.6052C33.6107 34.6052 34.8078 34.2974 35.8771 33.6817Z" fill="white"/>
<path d="M56.8664 35.529C56.8664 35.1413 56.7502 34.8223 56.5178 34.5714C56.2852 34.3206 55.9832 34.1953 55.6112 34.1953H54.6698C53.5774 34.1953 52.6825 33.8248 51.9851 33.0838C51.2878 32.3427 50.9391 31.391 50.9391 30.2281V21.0969H54.8791C55.2509 21.0969 55.5473 20.9886 55.7681 20.772C55.9889 20.5555 56.0993 20.2876 56.0993 19.9684C56.0993 19.6263 55.9889 19.3471 55.7681 19.1305C55.5473 18.9139 55.2509 18.8057 54.8791 18.8057H50.9391V13.5046C50.9391 13.1171 50.8114 12.7979 50.5557 12.5471C50.3 12.2964 49.9746 12.1709 49.5794 12.1709C49.1842 12.1709 48.8646 12.2964 48.6206 12.5472C48.3765 12.7979 48.2545 13.1171 48.2545 13.5047V18.8056H45.9882C45.6162 18.8056 45.3199 18.9139 45.0991 19.1304C44.8783 19.3471 44.7678 19.6263 44.7678 19.9684C44.7678 20.2876 44.8783 20.5555 45.0991 20.772C45.3199 20.9886 45.6162 21.0969 45.9882 21.0969H48.2545V30.2281C48.2545 31.4821 48.5276 32.6049 49.0739 33.5967C49.6201 34.5885 50.3813 35.3751 51.3576 35.9565C52.3338 36.5379 53.4379 36.8286 54.6698 36.8286H55.402C55.8204 36.8286 56.1691 36.7032 56.448 36.4523C56.727 36.2016 56.8664 35.8938 56.8664 35.529V35.529ZM64.8504 35.7513C63.4093 34.9191 62.2761 33.7792 61.451 32.3314C60.6258 30.8836 60.2133 29.2705 60.2133 27.4923C60.2133 25.6682 60.6084 24.0324 61.3987 22.5847C62.189 21.1368 63.2815 20.0026 64.6761 19.1818C66.0708 18.3611 67.6397 17.9507 69.383 17.9507C72.2886 17.9507 74.6478 19.0449 76.4608 21.2338C76.6468 21.439 76.7398 21.6783 76.7398 21.952C76.7398 22.3168 76.5422 22.636 76.1471 22.9096C75.9378 23.0463 75.717 23.1148 75.4846 23.1148C75.1359 23.1148 74.7989 22.9437 74.4734 22.6017C73.7762 21.8494 73.0091 21.2851 72.1723 20.9089C71.3356 20.5327 70.4057 20.3446 69.383 20.3446C68.1046 20.3446 66.9657 20.6467 65.9662 21.2508C64.9667 21.8551 64.1938 22.7043 63.6476 23.7987C63.1014 24.8931 62.8282 26.1243 62.8282 27.4923C62.8282 28.8374 63.1187 30.0514 63.6999 31.1345C64.281 32.2174 65.0944 33.0667 66.1404 33.6823C67.1864 34.2979 68.3835 34.6056 69.7317 34.6056C71.5913 34.6056 73.0904 34.1154 74.2294 33.1351C74.5315 32.8843 74.8454 32.7588 75.1707 32.7588C75.4497 32.7588 75.7054 32.8501 75.9378 33.0325C76.2632 33.3061 76.4259 33.6139 76.4259 33.9558C76.4259 34.2523 76.3098 34.503 76.0773 34.7082C74.4037 36.2358 72.2886 36.9996 69.7317 36.9996C67.9186 36.9996 66.2915 36.5835 64.8504 35.7513V35.7513ZM98.5662 21.9349C97.8224 20.6239 96.7939 19.6266 95.4806 18.9426C94.1673 18.2586 92.6855 17.9166 91.0352 17.9166C89.7568 17.9166 88.5714 18.156 87.4789 18.6347C86.3864 19.1135 85.4566 19.7747 84.6896 20.6182V11.4529C84.6896 11.0653 84.5675 10.7461 84.3235 10.4952C84.0794 10.2446 83.7599 10.1191 83.3647 10.1191C82.9695 10.1191 82.6441 10.2446 82.3884 10.4954C82.1327 10.7461 82.0049 11.0653 82.0049 11.453V35.5291C82.0049 35.9167 82.1327 36.2302 82.3884 36.4696C82.6441 36.709 82.9695 36.8287 83.3647 36.8287C83.7599 36.8287 84.0794 36.709 84.3235 36.4696C84.5675 36.2302 84.6896 35.9167 84.6896 35.5291V25.4062C84.6896 24.4713 84.9568 23.6221 85.4915 22.8583C86.0261 22.0945 86.7524 21.4961 87.6706 21.0629C88.5887 20.6297 89.6172 20.413 90.7563 20.413C92.6158 20.413 94.1209 20.9432 95.2715 22.0034C96.4219 23.0636 96.9973 24.6082 96.9973 26.6374V35.5291C96.9973 35.8939 97.1251 36.2017 97.3808 36.4526C97.6365 36.7033 97.9619 36.8287 98.357 36.8287C98.729 36.8287 99.0428 36.7033 99.2985 36.4526C99.5541 36.2017 99.682 35.8939 99.682 35.5291V26.6374C99.682 24.8134 99.31 23.2459 98.5662 21.9349V21.9349Z" fill="white"/>
<path d="M112.99 11.7359C112.99 10.0534 111.906 9 110.203 9H106.402V19.0802H110.499C111.414 19.0802 112.132 18.7875 112.681 18.2024C113.23 17.6172 113.511 16.9003 113.511 16.0518C113.511 15.569 113.356 15.0862 113.033 14.618C112.709 14.1499 112.272 13.8426 111.709 13.6963C112.61 13.3451 112.99 12.5697 112.99 11.7359V11.7359ZM108.204 10.6678H110.02C110.71 10.6678 111.118 11.1214 111.118 11.8383C111.118 12.5405 110.71 13.0526 110.076 13.0526H108.204V10.6677V10.6678ZM110.358 14.618C111.146 14.618 111.625 15.3056 111.625 16.0225C111.625 16.7686 111.146 17.4124 110.4 17.4124H108.204V14.6179H110.358V14.618ZM123.011 19.0802V17.4124H118.661V14.9398H122.349V13.2867H118.661V10.6677H122.87V9H116.873V19.0802H123.011ZM128.392 10.7117V19.0802H130.208V10.7117H132.939V9H125.661V10.7117H128.392ZM143.363 19.0802L139.731 9H137.789L134.156 19.0802H136.07L136.957 16.637H140.575L141.462 19.0802H143.363ZM139.984 14.9984H137.563L138.76 11.1507L139.984 14.9984Z" fill="white"/>
</svg>
